<svg xmlns="http://www.w3.org/2000/svg" xmlns:vectornator="http://vectornator.io" xmlns:xlink="http://www.w3.org/1999/xlink" height="750.0pt" stroke-miterlimit="10" style="fill-rule:nonzero;clip-rule:evenodd;stroke-linecap:round;stroke-linejoin:round;" viewBox="0 0 600 750" width="600.0pt" xml:space="preserve"> <defs/> <clipPath id="ArtboardFrame"> <rect height="750" width="600" x="0" y="0"/> </clipPath> <g clip-path="url(#ArtboardFrame)" id="Camada-1"> <g opacity="0"> <g opacity="1"> <path d="M285.172 169.459C284.417 169.459 283.636 169.487 282.828 169.539C282.828 169.539 290.952 180.312 301.787 175.241C301.787 175.241 296.601 169.459 285.172 169.459" fill="#0d305f" fill-rule="nonzero" opacity="1" stroke="none"/> <path d="M435.897 409.78C435.076 409.78 434.378 409.808 433.841 409.866C433.419 413.355 433.033 416.795 432.651 420.292C431.235 420.694 428.475 420.435 425.809 420.177C423.893 419.991 422.026 419.807 420.737 419.865C418.201 441.473 415.774 462.655 413.354 483.476C417.341 483.725 421.287 483.901 425.242 484.109C424.868 487.568 424.494 490.964 424.117 494.384C440.447 495.187 456.664 495.938 472.767 496.631C473.428 491.532 474.091 486.355 474.841 481.179C464.728 480.647 454.569 480.135 444.431 479.59C444.823 476.246 445.252 472.89 445.689 469.499C455.988 470.031 466.287 470.535 476.551 471.063C477.729 462.176 478.914 453.251 480.154 444.242C474.186 443.9 468.225 443.551 462.31 443.164C463.013 437.601 463.759 431.998 464.505 426.402C470 426.773 475.491 427.097 480.943 427.421C481.542 422.717 482.112 417.979 482.748 413.21C475.032 412.266 466.229 411.995 458.296 411.413C453.777 411.108 441.73 409.78 435.897 409.78" fill="#0d305f" fill-rule="nonzero" opacity="1" stroke="none"/> <path d="M440.05 242.201C438.398 241.051 436.538 240.579 434.627 240.577C428.232 240.577 421.262 245.889 419.57 249.034C421.182 250.909 423.881 252.129 426.886 253.387C425.877 253.914 417.667 256.161 418.492 260.08C419.311 263.964 424.205 267.247 425.523 268.525C420.173 269.67 418.588 270.282 416.013 273.915C417.579 277.592 427.35 285.136 436.02 282.953C440.47 281.782 442.739 279.674 441.438 274.294C440.778 271.459 441.926 271.708 443.121 269.539C446.229 263.964 443.309 260.032 443.056 258.076C442.767 255.905 448.474 248.04 440.05 242.201" fill="#0d305f" fill-rule="nonzero" opacity="1" stroke="none"/> <path d="M336.907 280.454C340.508 290.978 349.117 297.289 361.706 300.377C363.558 285.026 372.62 279.892 388.157 287.454C389.404 278.489 394.375 274.033 404.814 275.464C405.887 264.942 406.973 254.399 408.096 243.729C407.08 243.581 406.135 243.511 405.249 243.511C393.667 243.511 392.771 255.461 385.904 260.71C386.22 251.687 381.09 248.625 374.001 246.635C376.541 259.934 373.93 268.442 367.975 273.844C366.684 257.785 361.155 250.977 352.13 251.979C359.817 267.001 353.616 275.999 336.907 280.454" fill="#0d305f" fill-rule="nonzero" opacity="1" stroke="none"/> <path d="M421.772 345.025C418.666 343.563 415.104 342.483 411.945 341.013C410.288 340.262 403.401 337.124 402.648 337.049C400.316 360.559 397.942 383.276 395.688 405.684C393.464 427.737 391.315 449.45 389.198 471.168C388.894 474.426 388.096 479.562 388.078 483.017L387.79 485.946C387.427 489.589 390.087 492.838 393.738 493.202L399.668 493.789C403.311 494.148 406.565 491.487 406.929 487.847L408.6 470.957C408.603 470.929 408.598 470.899 408.6 470.872C410.413 453.03 412.266 435.028 414.155 416.785C416.582 393.289 419.181 369.373 421.772 345.025" fill="#0d305f" fill-rule="nonzero" opacity="1" stroke="none"/> <path d="M418.315 230.286C411.887 231.296 412.488 233.286 411.893 239.675C409.997 259.515 408.141 279.081 406.263 298.408C405.939 300.048 406.032 299.772 404.353 300.274C403.298 300.611 402.603 300.769 401.548 301.156C390.92 304.629 395.582 301.778 392.459 307.63C390.604 311.061 389.84 310.324 388.882 311.975C389.878 313.346 390.883 314.722 391.845 316.037C395.332 321.469 395.972 326.764 395.407 333.217C401.503 333.118 396.378 329.769 408.352 335.854C415.616 339.545 430.444 348.027 432.139 336.534C432.546 333.856 431.87 331.469 430.856 329.6C429.87 327.763 429.294 327.284 427.615 326.252C427.035 325.948 426.484 325.544 425.94 325.144C430.567 324.69 435.503 321.919 435.875 317.508C436.259 312.969 430.911 310.491 426.848 308.945C430.168 307.815 433.804 307.283 434.602 303.294C435.36 299.423 432.144 296.267 429.453 295.158C423.274 292.469 411.727 297.992 406.811 299.581C410.825 295.738 412.736 291.844 421.426 291.256C423.143 290.843 425.305 290.789 426.946 290.33C427.959 288.458 427.715 286.662 427.793 284.235C423.914 283.357 418.272 280.166 415.005 277.939C413.702 277.038 412.45 275.845 411.218 275.185C412.834 269.82 421.381 268.982 423.178 268.063C420.768 266.266 415.161 263.81 413.959 258.39C419.148 253.555 420.268 255.011 424.941 253.312C422.542 252.318 417.012 250.011 415.633 247.588C418.704 243.157 427.181 240.346 432.44 239.076C432.709 236.105 433.018 233.168 433.324 230.196C430.755 230.028 427.856 229.867 425.021 229.867C422.666 229.867 420.354 229.977 418.315 230.286" fill="#0d305f" fill-rule="nonzero" opacity="1" stroke="none"/> <path d="M473.674 158.195C471.376 160.494 468.201 161.905 464.687 161.905C461.181 161.905 457.999 160.494 455.707 158.195C453.408 155.9 451.984 152.717 451.984 149.205C451.984 145.703 453.408 142.529 455.707 140.225C457.999 137.928 461.181 136.505 464.687 136.505C468.201 136.505 471.376 137.928 473.674 140.225C475.976 142.529 477.398 145.703 477.398 149.205C477.398 152.717 475.976 155.9 473.674 158.195M468.83 202.494C466.533 204.798 463.357 206.214 459.844 206.214C456.342 206.214 453.161 204.798 450.859 202.494C448.564 200.196 447.138 197.026 447.138 193.507C447.138 189.999 448.564 186.826 450.859 184.529C453.161 182.23 456.342 180.811 459.844 180.811C463.357 180.811 466.533 182.23 468.83 184.529C471.128 186.826 472.549 189.999 472.549 193.507C472.549 197.026 471.128 200.196 468.83 202.494M441.637 175.308C436.977 179.965 434.092 186.404 434.092 193.507C434.092 195.705 434.368 197.826 434.888 199.863C432.483 199.228 430.595 198.4 427.635 198.063C425.398 197.748 423.781 197.804 422.141 197.861C421.501 197.885 420.856 197.907 420.168 197.907C419.666 197.907 419.138 197.894 418.573 197.861C418.704 197.377 418.832 196.901 418.962 196.439C420.273 193.507 421.057 190.296 421.19 186.916C421.732 182.215 420.8 177.651 416.379 170.669C414.877 168.271 412.992 166.808 411.107 164.587C412.54 163.564 413.916 162.885 415.427 161.807C419.608 159.003 422.892 154.515 424.627 149.19C426.969 141.915 424.124 144.302 431.654 141.476C434.258 140.537 435.933 142.226 439.249 145.229C439.043 146.534 438.938 147.859 438.938 149.205C438.938 156.317 441.82 162.754 446.485 167.413C447.397 168.334 448.391 169.183 449.44 169.954C446.513 171.251 443.872 173.079 441.637 175.308M400.308 152.908C396.8 152.908 393.619 151.495 391.325 149.193C389.02 146.898 387.599 143.71 387.599 140.208C387.599 136.7 389.02 133.525 391.325 131.223C393.619 128.926 396.8 127.51 400.308 127.51C403.813 127.51 406.991 128.926 409.289 131.223C411.591 133.525 413.017 136.7 413.017 140.208C413.017 143.71 411.591 146.898 409.289 149.193C406.991 151.495 403.813 152.908 400.308 152.908M404.448 194.877C402.143 197.177 398.969 198.602 395.457 198.602C391.952 198.602 388.771 197.177 386.479 194.877C384.182 192.577 382.758 189.402 382.758 185.894C382.758 182.388 384.182 179.215 386.479 176.913C388.771 174.623 391.952 173.192 395.457 173.192C398.969 173.192 402.143 174.623 404.448 176.913C406.748 179.215 408.167 182.388 408.167 185.894C408.167 189.402 406.748 192.577 404.448 194.877M482.9 131.005C478.241 126.345 471.795 123.461 464.687 123.461C458.15 123.461 452.182 125.899 447.635 129.915C444.009 122.562 440.328 115.111 436.668 107.61C434.903 108.517 424.401 122.705 421.428 125.484C420.554 124.237 419.587 123.074 418.511 122.005C416.442 119.934 414.014 118.217 411.345 116.942C408.987 115.633 406.085 114.539 402.46 113.954C385.969 111.388 371.974 125.406 374.418 142.432C374.736 144.767 375.254 146.73 375.901 148.439C377.179 152.238 379.323 155.647 382.098 158.421C382.874 159.186 383.687 159.909 384.556 160.58L384.879 160.986C379.479 164.23 375.093 167.197 372.273 173.93C371.741 175.208 371.33 176.491 371.013 177.776C370.166 180.332 369.708 183.055 369.708 185.894C369.708 193.002 372.591 199.443 377.252 204.103C381.91 208.757 388.349 211.639 395.457 211.639C400.288 211.639 404.809 210.306 408.67 208.002C408.201 213.246 407.772 218.495 407.351 223.669C408.862 223.867 410.449 224.081 412.003 224.284C411.963 224.962 411.935 225.619 411.915 226.287C411.907 226.285 411.9 226.285 411.893 226.282C411.88 226.529 411.862 226.772 411.862 227.017C412.05 227.041 412.247 227.068 412.44 227.089C412.442 227.06 412.442 227.03 412.442 227.002C420.393 227.969 428.38 228.974 436.292 229.965C436.49 229.086 436.656 228.245 436.887 227.41C438.551 227.59 440.178 227.764 441.868 227.944C442.335 223.068 442.813 218.176 443.309 213.246C447.781 216.998 453.553 219.261 459.844 219.261C466.955 219.261 473.39 216.377 478.053 211.717C482.712 207.057 485.595 200.618 485.595 193.507C485.595 186.404 482.712 179.965 478.053 175.308C477.352 174.608 476.612 173.945 475.833 173.327C478.407 171.272 485.122 168.671 488.482 159.126C488.522 159.023 488.56 158.921 488.59 158.81C489.785 155.85 490.442 152.597 490.442 149.205C490.442 142.105 487.558 135.664 482.9 131.005" fill="#0d305f" fill-rule="nonzero" opacity="1" stroke="none"/> <path d="M274.464 186.409C280.505 175.905 291.349 180.447 297.181 181.411C290.578 181.677 283.407 180.342 278.614 188.309C274.368 195.389 275.82 202.215 276.344 210.56C274.198 208.905 271.006 203.141 271.188 199.19C271.488 194.581 272.463 189.906 274.464 186.409M300.562 173.722C295.587 181.637 280.756 174.244 276.279 166.148C278.923 165.056 296.503 164.661 300.562 173.722M391.907 325.31C390.34 318.768 387.652 317.709 385.766 313.303C386.664 312.038 387.616 311.285 388.608 309.751C391.292 305.677 392.314 298.991 386.976 296.85C384.816 303.58 379.398 309.999 371.653 310.293C350.05 311.109 325.579 291.683 303.289 285.821C312.746 286.414 328.97 292.369 337.779 296.428C364.831 309.08 320.853 279.696 323.098 268.637C324.104 263.838 328.873 261.656 331.489 259.319C317.963 256.6 312.312 263.582 306.71 263.72C307.044 261.194 313.442 254.838 299.549 242.627C286.722 258.205 261.303 230.863 279.388 218.191C283.636 220.436 294.487 229.227 298.67 229.403C300.087 226.533 299.45 224.562 299.745 220.903C299.873 220.945 300.027 221.018 300.16 221.066C300.173 221.073 300.188 221.078 300.203 221.083C303.71 222.384 308.971 225.803 312.942 227.966C312.97 227.979 313 227.997 313.027 228.012C313.618 228.333 314.179 228.627 314.702 228.878C323.602 233.146 338.549 241.851 346.862 234.524C350.045 231.68 351.768 223.679 348.127 219.775C346.486 224.309 348.223 240.682 321.079 229.686C315.375 227.382 310.967 224.249 305.485 221.826C305.099 221.66 304.75 221.467 304.425 221.256C304.303 221.176 304.195 221.085 304.079 221C303.888 220.862 303.7 220.722 303.527 220.571C303.402 220.463 303.283 220.35 303.17 220.237C303.012 220.086 302.854 219.936 302.706 219.778C302.598 219.663 302.49 219.544 302.382 219.429C302.287 219.318 302.189 219.211 302.093 219.103C301.993 218.987 301.89 218.874 301.792 218.759C301.67 218.62 301.544 218.482 301.423 218.342L301.42 218.342C301.269 218.171 301.119 218.003 300.963 217.834C300.961 217.834 300.958 217.832 300.958 217.829C300.926 217.797 300.891 217.764 300.858 217.732C300.635 217.498 300.406 217.267 300.16 217.049C300.158 217.046 300.155 217.044 300.15 217.041C299.579 216.537 298.936 216.08 298.14 215.734C291.971 213.067 280.849 208.951 284.329 198.971C285.996 190.207 297.359 189.761 305.538 199.215C308.322 206.779 305.834 211.368 303.958 217.531C312.994 223.34 315.556 218.887 319.787 214.283C322.455 211.383 323.789 211.666 322.656 206.034C321.948 202.679 320.784 199.985 319.822 197.064C322.119 201.986 323.116 201.703 326.272 209.884C327.424 209.605 328.574 209.382 329.766 209.061C329.521 196.943 317.045 188.011 309.296 182.164C308.772 163.221 300.386 162.922 286.109 157.871C285.938 150.064 291.997 150.322 292.845 144.212C284.319 144.598 285.574 146.416 275.719 148.113C276.37 145.226 280.457 128.472 282.747 124.578C281.208 124.257 277.57 126.988 273.535 129.714C265.451 135.184 255.784 140.654 258.275 121.548C260.831 115.518 266.448 111.78 274.526 111.223C274.321 111.077 274.163 110.886 274.002 110.741C273.917 110.695 273.839 110.595 273.723 110.502C273.638 110.415 273.56 110.361 273.435 110.299C270.861 108.508 267.884 107.821 264.889 107.821C260.863 107.821 256.806 109.058 253.66 110.507C250.702 111.89 248.476 113.213 245.847 114.88C237.456 120.23 230.873 126.307 232.621 139.038C234.626 153.819 224.054 138.646 224.352 130.738C224.465 126.355 225.852 123.601 226.343 119.898C212.921 139.176 212.645 145.118 214.47 159.342C212.464 158.549 209.65 156.021 207.759 154.635C205.989 153.312 202.878 150.912 201.237 150.018C202.399 158.817 205.211 164.458 211.937 169.113C211.734 169.361 210.797 169.015 209.346 168.668C203.95 167.378 191.424 166.088 183.026 195.539C191.891 181.938 198.768 178.027 203.513 186.665C171.864 209.144 187.136 232.935 188.444 236.886C192.853 228.263 203.089 223.177 206.223 230.53C190.814 239.954 186.568 258.938 191.994 254.238C195.311 251.364 221.239 246.438 215.188 271.239C214.337 275.905 206.587 280.901 200.576 283.188C200.531 285.799 200.993 286.296 203.599 287.021C209.346 288.673 216.903 290.099 222.582 288.897C229.718 287.408 233.567 281.293 237.24 278.165C256.05 308.425 201.975 327.103 184.748 333.552C175.06 337.185 163.427 356.49 163.414 368.15C163.417 368.723 163.453 369.297 163.521 369.88C163.327 369.499 163.108 369.157 162.847 368.911C159.799 371.165 154.687 376.422 147.1 373.096C142.016 370.839 139.083 365.856 138.32 359.711C137.484 352.593 141.112 348.218 144.258 343.439C147.158 339.014 149.935 335.071 152.973 330.919C157.823 324.366 166.678 314.837 172.302 308.116C181.864 296.865 194.551 278.152 184.264 260.986C177.829 250.031 166.443 245.381 158.936 237.78C157.141 236.04 156.174 236.221 152.347 231.886C146.651 225.353 136.796 217.827 139.284 208.41C140.715 202.87 145.579 198.675 149.659 196.506C158.765 191.754 161.614 201.228 168.871 208.858C177.64 209.696 179.775 202.795 177.306 195.893C173.297 184.677 157.136 173.463 137.544 195.459C128.023 206.199 129.879 220.528 143.173 233.881C147.087 237.135 150.954 240.346 154.888 243.546C143.058 242.223 135.827 244.907 127.945 249.378C121.86 252.872 110.813 261.946 113.285 273.166C115.315 282.503 123.339 289.424 131.255 292.589C143.369 297.49 158.059 290.461 158.107 284.785C150.474 285.674 145.214 287.727 136.128 285.001C112.919 277.921 119.889 251.803 142.701 247.292C137.624 249.787 132.125 253.61 129.325 257.645C122.437 267.917 131.614 281.649 140.527 277.394C144.278 275.652 143.012 273.435 141.938 269.308C136.904 249.82 178.309 244.977 180.939 273.511C181.627 281.187 179.393 286.56 176.26 291.849C170.804 301.049 159.935 312.148 151.928 319.938C146.502 325.24 143.592 326.782 136.884 333.756C121.17 350.111 114.663 369.868 136.588 386.77C149.867 396.955 165.253 391.101 176.566 389.727C191.745 400.397 215.695 403.514 233.487 405.305C237.737 405.744 250.246 406.176 253.176 406.911C251.938 408.609 241.343 416.531 237.915 417.703C231.834 419.767 225.899 421.168 218.656 421.851C205.67 423.044 192.014 421.182 179.28 417.515C177.96 417.176 176.669 416.617 175.356 416.659C170.405 416.975 180.578 431.036 164.07 424.379C161.564 423.355 157.954 420.771 157.103 420.442C156.352 430.501 162.995 430.431 166.621 433.956C165.08 439.04 160.971 447.326 166.425 452.262C168.793 448.4 169.634 446.216 174.311 444.504C177.03 443.526 184.392 441.588 187.382 441.1C186.945 442.599 185.697 444.646 185.04 446.227C184.296 448.014 183.734 450.082 183.456 452.015C182.476 460.208 187.208 467.377 192.748 473.281C193.99 474.642 195.195 475.908 196.614 477.218C197.819 478.268 199.667 479.839 200.513 481.099C196.014 482.763 185.268 480.082 181.234 478.601C174.774 476.088 171.864 472.97 167.221 471.034C168.494 475.222 172.486 478.571 175.12 480.988C177.462 483.182 183.224 487.229 185.027 489.283C180.36 488.974 175.627 488.663 170.96 488.354C174.459 490.079 175.627 491.128 180.274 492.433C185.17 493.724 187.96 492.936 192.737 492.368C191.274 495.165 189.486 494.68 189.788 498.644C191.63 498.534 196.328 495.81 197.794 495.012C199.205 494.206 200.249 493.563 201.404 492.76C202.497 491.955 203.682 490.895 204.922 490.513C206.561 491.931 207.88 493.798 209.286 495.488C232.806 501.245 248.443 490.345 248.443 490.345C264.743 491.856 274.08 489.366 278.855 487.229C278.83 487.229 278.815 487.232 278.79 487.232C291.396 479.774 290.297 466.177 286.016 461.731C285.358 468.143 283.799 475.877 277.545 479.61C279.159 475.347 281.83 473.154 280.424 467.259C279.593 463.97 276.766 458.864 273.821 458.184C275.139 464.306 274.381 468.584 270.985 472.868C268.709 475.664 263.725 479.51 259.653 481.013C260.278 474.26 260.906 467.512 261.577 460.682C256.826 466.638 254.341 471.167 247.694 475.689C215.301 480.04 205.926 444.515 230.662 436.86C248.523 436.433 255.458 431.872 253.136 445.143C252.485 448.865 250 453.974 249.746 455.924C253.743 457.147 260.449 453.186 263.013 451.584C268.591 448.129 271.534 440.447 271.369 433.697C271.165 425.393 268.429 426.661 276.153 421.632C278.019 420.465 279.536 419.468 281.263 418C286.32 413.795 295.359 406.854 295.559 396.48C294.535 370.053 283.86 370.377 270.789 370.698C264.67 370.849 258.029 371 251.604 368.412C246.276 366.195 242.957 356.59 261.147 354.409C270.194 352.458 282.483 352.789 293.385 353.121C306.03 353.505 316.806 353.891 318.491 350.71C320.688 346.666 320.929 339.896 320.705 334.883C314.464 337.624 312.011 339.745 303.085 336.018C297.548 333.698 293.104 330.863 287.208 328.486C296.41 329.199 312.015 341.292 321.18 331.169C321.581 331.653 321.363 331.227 321.65 331.942C321.745 332.739 321.87 333.452 322.007 334.202C322.059 335.211 322.185 336.09 322.31 337.051C323.121 342.379 324.923 348.251 327.512 352.703C330.406 357.657 336.078 363.19 343.104 365.175C342.574 363.082 340.07 358.37 339.014 356.085C335.046 347.52 332.697 338.99 336.174 329.769C336.829 328.099 337.623 326.749 338.162 325.318C338.725 331.612 335.491 354.011 354.793 350.854C352.26 348.367 348.715 345.384 348.171 340.395C347.592 335.374 350.993 330.894 353.666 329.146C362.685 323.031 372.496 325.895 374.583 336.281C378.816 334.584 380.059 330.517 380.247 324.796C384.628 327.628 388.493 339.166 390.458 341.274C392.256 335.606 393.436 331.765 391.907 325.31" fill="#0d305f" fill-rule="nonzero" opacity="1" stroke="none"/> <path d="M372.027 470.231C371.771 467.231 372.303 465 371.018 462.358C369.998 460.248 369.085 458.151 367.857 456.519C365.122 452.987 360.992 450.756 353.869 450.723C354.917 452.882 359.117 453.266 361.706 458.854C363.159 461.879 363.155 465.404 362.484 468.718C362.206 470.146 362.18 470.718 361.459 471.607C360.742 467.364 359.991 464.688 357.626 461.691C356.566 460.31 351.71 456.349 348.308 456.736C348.388 458.417 349.435 460.343 349.95 462.075C352.788 470.693 344.66 475.418 334.64 470.837C320.575 464.473 332.729 446.192 342.611 452.49C343.545 453.7 345.167 454.732 346.215 455.786C348.165 453.648 348.873 450.12 348.738 446.784C348.599 442.654 347.6 441.272 346.486 437.9C349.659 438.485 350.93 440.33 353.453 440.759C354.349 437.413 354.354 434.244 353.428 431.012C352.458 427.725 350.939 426.289 349.724 423.656C350.063 423.332 349.873 423.485 350.362 423.136C351.595 422.471 352.823 421.781 354.055 421.062C355.584 420.209 356.903 419.473 358.286 418.529C363.247 415.319 369.034 410.308 370.686 404.466C371.432 401.667 371.454 395.434 369.463 393.596C365.245 401.765 352.597 413.077 341.357 415.057C342.195 412.979 343.882 410.847 344.946 408.447C348.171 401.35 347.442 390.632 339.408 387.421C337.647 389.491 337.836 394.017 332.584 398.205C329.834 400.379 324.903 403.105 321.368 404.599C321.148 400.141 325.602 390.641 318.878 386.082C314.537 383.123 317.992 389.133 312.641 397.163C311.838 398.341 311.267 399.365 310.11 400.03C310.761 395.341 312.031 391.227 310.321 386.537C309.167 383.313 305.498 379.744 302.212 378.551C300.77 380.334 298.492 385.922 299.486 388.477C301.041 392.512 302.407 394.781 301.069 399.656C298.628 408.844 289.059 416.449 284.053 423.372C281.088 427.454 280.816 429.123 284.567 432.082C289.348 435.901 299.812 437.388 307.617 437.764C302.184 431.227 299.986 423.731 308.358 419.027C315.936 413.97 334.881 424.284 320.869 438.768C311.135 444.095 305.076 444.957 296.428 440.691C294.158 446.613 297.266 460.026 312.641 459.487C311.195 464.714 300.218 463.335 294.706 464.623C293.992 468.584 298.986 472.637 301.287 473.961C304.968 476.106 310.098 476.804 315.32 477.005C314.762 477.873 314.911 477.71 313.389 478.523C312.591 478.963 312.121 479.244 311.325 479.61C304.978 482.653 300.58 481.431 294.921 480.346C295.04 480.81 295.233 481.235 295.419 481.659C296.189 483.09 297.156 484.3 298.286 485.314C298.712 485.663 299.142 485.994 299.622 486.301C299.589 486.301 299.549 486.305 299.516 486.305C311.044 494.584 335.18 487.333 335.18 487.333C352.519 491.497 362.426 489.247 365.883 488.098C369.602 486.127 373.167 482.793 375.025 478.892C376.813 475.167 377.433 465.989 375.058 462.961C374.64 464.229 372.082 469.862 372.027 470.231" fill="#0d305f" fill-rule="nonzero" opacity="1" stroke="none"/> </g> <g opacity="1"> <path d="M477.571 421.52C478.171 416.815 478.74 412.078 479.376 407.308C471.658 406.367 462.855 406.093 454.923 405.51C450.402 405.207 438.355 403.879 432.525 403.879C431.705 403.879 431.003 403.906 430.466 403.964C430.048 407.453 429.658 410.893 429.277 414.39C427.863 414.794 425.103 414.535 422.437 414.277C420.521 414.091 418.651 413.905 417.364 413.963C414.827 435.57 412.402 456.753 409.982 477.574C413.968 477.825 417.915 477.999 421.867 478.207C421.496 481.666 421.119 485.066 420.745 488.482C437.075 489.285 453.289 490.036 469.393 490.731C470.053 485.631 470.719 480.453 471.467 475.277C461.354 474.745 451.198 474.232 441.06 473.688C441.451 470.344 441.88 466.988 442.317 463.597C452.616 464.129 462.915 464.633 473.179 465.16C474.357 456.273 475.539 447.349 476.779 438.34C470.814 437.998 464.851 437.649 458.936 437.262C459.638 431.699 460.387 426.096 461.132 420.503C466.626 420.871 472.117 421.196 477.571 421.52" fill="#edf1f5" fill-rule="nonzero" opacity="1" stroke="none"/> <path d="M477.571 421.52C478.171 416.815 478.74 412.078 479.376 407.308C471.658 406.367 462.855 406.093 454.923 405.51C450.402 405.207 438.355 403.879 432.525 403.879C431.705 403.879 431.003 403.906 430.466 403.964C430.048 407.453 429.658 410.893 429.277 414.39C427.863 414.794 425.103 414.535 422.437 414.277C420.521 414.091 418.651 413.905 417.364 413.963C414.827 435.57 412.402 456.753 409.982 477.574C413.968 477.825 417.915 477.999 421.867 478.207C421.496 481.666 421.119 485.066 420.745 488.482C437.075 489.285 453.289 490.036 469.393 490.731C470.053 485.631 470.719 480.453 471.467 475.277C461.354 474.745 451.198 474.232 441.06 473.688C441.451 470.344 441.88 466.988 442.317 463.597C452.616 464.129 462.915 464.633 473.179 465.16C474.357 456.273 475.539 447.349 476.779 438.34C470.814 437.998 464.851 437.649 458.936 437.262C459.638 431.699 460.387 426.096 461.132 420.503C466.626 420.871 472.117 421.196 477.571 421.52" fill="#edf1f5" fill-rule="nonzero" opacity="1" stroke="none"/> <path d="M436.678 236.299C435.026 235.151 433.166 234.677 431.255 234.675C424.86 234.675 417.89 239.987 416.196 243.132C417.81 245.01 420.507 246.228 423.515 247.485C422.503 248.012 414.295 250.259 415.119 254.178C415.94 258.062 420.833 261.345 422.149 262.623C416.8 263.768 415.214 264.382 412.638 268.013C414.208 271.69 423.979 279.234 432.646 277.05C437.098 275.881 439.368 273.772 438.066 268.392C437.404 265.558 438.551 265.806 439.749 263.637C442.855 258.062 439.937 254.131 439.684 252.174C439.395 250.003 445.099 242.138 436.678 236.299" fill="#edf1f5" fill-rule="nonzero" opacity="1" stroke="none"/> <path d="M358.331 294.475C360.186 279.124 369.248 273.99 384.784 281.551C386.032 272.586 391 268.131 401.443 269.561C402.515 259.04 403.602 248.499 404.721 237.827C403.707 237.679 402.76 237.609 401.875 237.609C390.295 237.609 389.399 249.559 382.532 254.808C382.846 245.788 377.719 242.723 370.626 240.732C373.17 254.032 370.558 262.54 364.601 267.945C363.312 251.883 357.784 245.075 348.757 246.077C356.445 261.099 350.244 270.097 333.535 274.552C337.135 285.079 345.745 291.387 358.331 294.475" fill="#edf1f5" fill-rule="nonzero" opacity="1" stroke="none"/> <path d="M408.574 335.111C406.916 334.363 400.029 331.223 399.276 331.147C396.943 354.657 394.571 377.374 392.316 399.781C390.092 421.835 387.943 443.547 385.826 465.266C385.522 468.524 384.721 473.661 384.706 477.115L384.415 480.045C384.056 483.687 386.715 486.936 390.365 487.299L396.296 487.887C399.939 488.248 403.191 485.585 403.554 481.945L405.229 465.055C405.229 465.028 405.227 464.998 405.229 464.969C407.042 447.128 408.892 429.126 410.782 410.882C413.21 387.387 415.807 363.473 418.4 339.123C415.292 337.661 411.729 336.582 408.574 335.111" fill="#edf1f5" fill-rule="nonzero" opacity="1" stroke="none"/> <path d="M423.475 303.045C426.796 301.913 430.429 301.381 431.23 297.394C431.988 293.521 428.772 290.365 426.078 289.256C419.902 286.569 408.355 292.09 403.439 293.679C407.453 289.836 409.364 285.942 418.051 285.355C419.771 284.943 421.933 284.888 423.575 284.428C424.586 282.558 424.343 280.761 424.421 278.333C420.541 277.455 414.9 274.264 411.634 272.037C410.33 271.135 409.078 269.943 407.842 269.285C409.462 263.918 418.008 263.08 419.806 262.161C417.396 260.364 411.787 257.908 410.586 252.489C415.774 247.653 416.893 249.112 421.566 247.409C419.171 246.416 413.639 244.108 412.262 241.688C415.329 237.258 423.808 234.446 429.068 233.176C429.334 230.206 429.643 227.266 429.949 224.294C427.381 224.126 424.481 223.965 421.649 223.965C419.291 223.965 416.982 224.076 414.943 224.387C408.513 225.394 409.115 227.384 408.518 233.774C406.625 253.613 404.767 273.179 402.891 292.507C402.567 294.146 402.66 293.87 400.981 294.372C399.926 294.709 399.228 294.867 398.176 295.253C387.548 298.727 392.211 295.875 389.088 301.727C387.229 305.159 386.469 304.422 385.507 306.073C386.506 307.444 387.511 308.822 388.47 310.138C391.957 315.57 392.6 320.862 392.035 327.319C398.129 327.216 393.007 323.867 404.98 329.952C412.241 333.643 427.07 342.125 428.764 330.632C429.173 327.954 428.496 325.566 427.482 323.699C426.495 321.861 425.923 321.382 424.239 320.35C423.662 320.049 423.111 319.642 422.565 319.245C427.193 318.791 432.129 316.017 432.503 311.606C432.884 307.07 427.539 304.589 423.475 303.045" fill="#edf1f5" fill-rule="nonzero" opacity="1" stroke="none"/> <path d="M408.586 269.936C408.859 270.082 409.135 270.26 409.409 270.45C409.141 270.245 408.877 270.049 408.613 269.868C408.605 269.891 408.591 269.908 408.586 269.936" fill="#edf1f5" fill-rule="nonzero" opacity="1" stroke="none"/> <path d="M418.056 119.582C417.182 118.335 416.216 117.172 415.139 116.103C413.07 114.031 410.64 112.317 407.973 111.042C405.613 109.731 402.713 108.639 399.085 108.052C382.597 105.487 368.603 119.504 371.043 136.532C371.364 138.865 371.879 140.828 372.527 142.537C373.807 146.336 375.952 149.745 378.725 152.519C379.498 153.287 380.315 154.007 381.183 154.68L381.507 155.087C376.107 158.327 371.721 161.295 368.901 168.028C368.369 169.306 367.957 170.589 367.642 171.874C366.792 174.432 366.335 177.153 366.335 179.995C366.335 187.103 369.22 193.541 373.881 198.201C378.537 202.855 384.975 205.74 392.085 205.74C396.916 205.74 401.438 204.404 405.297 202.102C404.827 207.343 404.398 212.593 403.976 217.767C405.488 217.965 407.077 218.178 408.628 218.382C408.576 219.28 408.526 220.139 408.513 221.033C416.648 222.019 424.822 223.048 432.917 224.063C433.118 223.184 433.281 222.343 433.515 221.507C435.177 221.691 436.804 221.861 438.497 222.043C438.964 217.169 439.437 212.274 439.937 207.343C444.406 211.097 450.181 213.359 456.473 213.359C463.583 213.359 470.016 210.474 474.678 205.814C479.34 201.155 482.223 194.719 482.223 187.605C482.223 180.505 479.34 174.065 474.678 169.406C473.981 168.706 473.239 168.043 472.46 167.426C475.034 165.37 481.751 162.769 485.11 153.224C485.15 153.121 485.188 153.019 485.218 152.908C486.413 149.948 487.069 146.697 487.069 143.303C487.069 136.204 484.186 129.762 479.529 125.105C474.869 120.443 468.424 117.558 461.314 117.558C454.776 117.558 448.81 119.997 444.263 124.013C440.638 116.66 436.957 109.212 433.296 101.708C431.531 102.617 421.029 116.803 418.056 119.582M387.952 143.293C385.645 140.996 384.224 137.811 384.224 134.306C384.224 130.798 385.645 127.623 387.952 125.321C390.245 123.024 393.429 121.609 396.936 121.609C400.441 121.609 403.617 123.024 405.917 125.321C408.219 127.623 409.643 130.798 409.643 134.306C409.643 137.811 408.219 140.996 405.917 143.293C403.617 145.593 400.441 147.009 396.936 147.009C393.429 147.009 390.245 145.593 387.952 143.293M452.335 152.293C450.035 149.998 448.612 146.815 448.612 143.303C448.612 139.801 450.035 136.628 452.335 134.323C454.627 132.026 457.806 130.605 461.314 130.605C464.829 130.605 468.004 132.026 470.302 134.323C472.602 136.628 474.022 139.801 474.022 143.303C474.022 146.815 472.602 149.998 470.302 152.293C468.004 154.592 464.829 156.005 461.314 156.005C457.806 156.005 454.627 154.592 452.335 152.293M415.202 191.962C415.329 191.475 415.46 190.998 415.588 190.536C416.899 187.605 417.684 184.393 417.818 181.015C418.359 176.313 417.428 171.748 413.007 164.767C411.506 162.369 409.621 160.906 407.734 158.684C409.169 157.663 410.542 156.983 412.055 155.906C416.233 153.102 419.517 148.612 421.255 143.288C423.597 136.013 420.753 138.4 428.279 135.574C430.884 134.637 432.561 136.327 435.875 139.327C435.671 140.632 435.566 141.96 435.566 143.303C435.566 150.415 438.448 156.854 443.114 161.513C444.025 162.435 445.019 163.281 446.069 164.052C443.141 165.349 440.499 167.178 438.265 169.406C433.605 174.065 430.72 180.505 430.72 187.605C430.72 189.803 430.994 191.924 431.516 193.96C429.109 193.328 427.223 192.497 424.263 192.161C422.026 191.846 420.407 191.905 418.769 191.962C418.129 191.983 417.484 192.005 416.795 192.005C416.292 192.005 415.766 191.995 415.202 191.962M383.104 188.975C380.809 186.675 379.383 183.5 379.383 179.995C379.383 176.489 380.809 173.313 383.104 171.011C385.396 168.721 388.578 167.29 392.085 167.29C395.595 167.29 398.769 168.721 401.076 171.011C403.373 173.313 404.795 176.489 404.795 179.995C404.795 183.5 403.373 186.675 401.076 188.975C398.769 191.275 395.595 192.7 392.085 192.7C388.578 192.7 385.396 191.275 383.104 188.975M447.487 196.592C445.19 194.294 443.766 191.126 443.766 187.605C443.766 184.097 445.19 180.926 447.487 178.627C449.789 176.33 452.968 174.91 456.473 174.91C459.985 174.91 463.162 176.33 465.459 178.627C467.756 180.926 469.177 184.097 469.177 187.605C469.177 191.126 467.756 194.294 465.459 196.592C463.162 198.896 459.985 200.314 456.473 200.314C452.968 200.314 449.789 198.896 447.487 196.592" fill="#edf1f5" fill-rule="nonzero" opacity="1" stroke="none"/> <path d="M408.49 221.116C408.679 221.138 408.875 221.166 409.067 221.186C409.08 220.945 409.083 220.707 409.098 220.458C408.907 220.433 408.709 220.405 408.518 220.381C408.507 220.626 408.49 220.869 408.49 221.116" fill="#edf1f5" fill-rule="nonzero" opacity="1" stroke="none"/> <path d="M271.092 180.507C277.133 170.003 287.977 174.545 293.809 175.511C287.203 175.775 280.033 174.44 275.242 182.41C270.997 189.488 272.445 196.313 272.973 204.66C270.827 203.003 267.632 197.239 267.816 193.288C268.117 188.679 269.092 184.004 271.092 180.507M297.188 167.82C292.215 175.735 277.384 168.342 272.907 160.249C275.551 159.156 293.129 158.759 297.188 167.82M388.535 319.408C386.966 312.866 384.277 311.807 382.394 307.401C383.29 306.136 384.244 305.386 385.235 303.849C387.92 299.777 388.942 293.089 383.602 290.948C381.442 297.681 376.024 304.098 368.281 304.391C346.677 305.207 322.206 285.782 299.915 279.92C309.372 280.512 325.599 286.466 334.404 290.526C361.459 303.178 317.479 273.795 319.724 262.738C320.731 257.938 325.501 255.755 328.117 253.418C314.592 250.698 308.938 257.68 303.336 257.818C303.673 255.295 310.07 248.936 296.177 236.725C283.35 252.302 257.931 224.962 276.016 212.289C280.264 214.534 291.113 223.325 295.298 223.5C296.712 220.631 296.076 218.66 296.37 215.001C300.393 216.333 307.143 220.955 311.33 222.976C320.231 227.246 335.175 235.949 343.491 228.624C346.674 225.778 348.394 217.777 344.755 213.873C343.113 218.407 344.848 234.78 317.708 223.784C312.003 221.48 307.592 218.347 302.111 215.924C298.833 214.526 298.078 211.28 294.768 209.832C288.599 207.168 277.477 203.049 280.957 193.069C282.624 184.306 293.987 183.859 302.163 193.313C304.951 200.877 302.463 205.466 300.584 211.629C309.623 217.438 312.184 212.985 316.415 208.381C319.084 205.481 320.414 205.764 319.284 200.134C318.576 196.777 317.409 194.084 316.447 191.162C318.744 196.084 319.744 195.801 322.897 203.983C324.052 203.706 325.199 203.48 326.394 203.159C326.149 191.043 313.673 182.109 305.923 176.263C305.4 157.319 297.013 157.02 282.737 151.969C282.567 144.162 288.622 144.42 289.473 138.31C280.947 138.697 282.202 140.517 272.347 142.214C272.998 139.324 277.083 122.57 279.375 118.676C277.836 118.357 274.195 121.086 270.163 123.813C262.079 129.282 252.412 134.753 254.9 115.646C257.459 109.619 263.076 105.877 271.153 105.321C270.949 105.175 270.791 104.986 270.63 104.839C270.545 104.793 270.467 104.693 270.349 104.6C270.266 104.512 270.188 104.459 270.063 104.396C267.489 102.607 264.509 101.919 261.514 101.919C257.489 101.919 253.432 103.156 250.288 104.608C247.328 105.988 245.104 107.311 242.475 108.978C234.084 114.328 227.501 120.405 229.246 133.136C231.254 147.92 220.682 132.744 220.98 124.836C221.093 120.453 222.48 117.699 222.972 113.996C209.549 133.274 209.273 139.216 211.099 153.44C209.093 152.647 206.278 150.119 204.385 148.735C202.617 147.41 199.506 145.013 197.865 144.116C199.027 152.915 201.839 158.556 208.565 163.211C208.362 163.462 207.425 163.113 205.974 162.766C200.578 161.476 188.052 160.188 179.652 189.638C188.519 176.036 195.396 172.127 200.142 180.763C168.492 203.242 183.765 227.033 185.072 230.984C189.481 222.361 199.715 217.277 202.849 224.63C187.442 234.052 183.194 253.038 188.622 248.336C191.939 245.462 217.865 240.536 211.816 265.339C210.963 270.003 203.212 274.999 197.204 277.286C197.159 279.897 197.621 280.394 200.224 281.119C205.974 282.771 213.531 284.2 219.208 282.995C226.346 281.506 230.195 275.393 233.868 272.263C252.676 302.523 198.603 321.201 181.374 327.65C171.688 331.283 160.053 350.588 160.042 362.249C160.045 362.821 160.078 363.395 160.146 363.978C159.955 363.597 159.734 363.258 159.476 363.009C156.427 365.263 151.315 370.52 143.728 367.196C138.644 364.938 135.71 359.954 134.947 353.811C134.112 346.691 137.74 342.316 140.884 337.537C143.786 333.112 146.561 329.169 149.599 325.017C154.449 318.464 163.307 308.935 168.931 302.214C178.492 290.963 191.179 272.25 180.889 255.086C174.457 244.129 163.071 239.479 155.564 231.881C153.769 230.138 152.8 230.321 148.976 225.983C143.279 219.452 133.423 211.925 135.911 202.511C137.341 196.968 142.204 192.776 146.287 190.604C155.393 185.852 158.24 195.329 165.499 202.956C174.269 203.794 176.403 196.893 173.934 189.991C169.925 178.777 153.764 167.562 134.171 189.557C124.652 200.297 126.506 214.626 139.801 227.979C143.713 231.235 147.58 234.446 151.516 237.644C139.686 236.321 132.455 239.005 124.573 243.479C118.486 246.97 107.44 256.046 109.913 267.264C111.942 276.601 119.968 283.522 127.881 286.688C139.997 291.588 154.687 284.559 154.733 278.883C147.102 279.772 141.84 281.825 132.755 279.099C109.546 272.019 116.516 245.901 139.327 241.392C134.252 243.885 128.752 247.708 125.953 251.743C119.064 262.015 128.242 275.75 137.155 271.493C140.906 269.75 139.641 267.535 138.566 263.406C133.53 243.918 174.937 239.075 177.567 267.609C178.253 275.285 176.021 280.66 172.888 285.947C167.432 295.147 156.563 306.246 148.557 314.036C143.128 319.34 140.221 320.88 133.511 327.854C117.798 344.209 111.29 363.966 133.216 380.869C146.492 391.053 161.878 385.199 173.194 383.825C188.373 394.495 212.322 397.612 230.112 399.402C234.365 399.842 246.874 400.274 249.801 401.012C248.563 402.706 237.968 410.629 234.541 411.801C228.46 413.865 222.525 415.268 215.284 415.949C202.298 417.144 188.64 415.281 175.908 411.616C174.585 411.274 173.297 410.715 171.984 410.757C167.033 411.076 177.204 425.134 160.698 418.48C158.192 417.455 154.582 414.869 153.731 414.54C152.98 424.599 159.621 424.529 163.247 428.054C161.705 433.138 157.6 441.424 163.053 446.36C165.419 442.499 166.262 440.314 170.94 438.602C173.656 437.626 181.02 435.688 184.01 435.198C183.573 436.697 182.323 438.744 181.668 440.325C180.924 442.113 180.362 444.18 180.081 446.113C179.102 454.306 183.835 461.478 189.376 467.379C190.618 468.74 191.824 470.005 193.242 471.316C194.447 472.366 196.295 473.937 197.139 475.197C192.64 476.861 181.896 474.18 177.862 472.699C171.399 470.186 168.492 467.068 163.849 465.132C165.122 469.32 169.114 472.669 171.748 475.086C174.09 477.281 179.852 481.327 181.655 483.381C176.985 483.072 172.255 482.76 167.588 482.452C171.087 484.177 172.255 485.229 176.902 486.531C181.795 487.822 184.585 487.034 189.366 486.466C187.902 489.263 186.114 488.778 186.413 492.742C188.256 492.632 192.956 489.908 194.422 489.11C195.833 488.304 196.877 487.661 198.033 486.861C199.125 486.052 200.308 484.993 201.55 484.611C203.19 486.029 204.508 487.896 205.914 489.586C229.434 495.343 245.071 484.443 245.071 484.443C261.371 485.954 270.705 483.464 275.483 481.327C275.458 481.327 275.441 481.333 275.418 481.333C288.024 473.871 286.925 460.275 282.644 455.829C281.987 462.243 280.427 469.975 274.173 473.708C275.787 469.446 278.458 467.251 277.053 461.357C276.222 458.068 273.394 452.962 270.447 452.282C271.767 458.404 271.007 462.683 267.61 466.966C265.338 469.761 260.353 473.608 256.281 475.111C256.907 468.358 257.534 461.61 258.205 454.78C253.452 460.736 250.969 465.265 244.32 469.789C211.929 474.14 202.552 438.613 227.288 430.958C245.152 430.534 252.086 425.97 249.764 439.241C249.113 442.963 246.625 448.072 246.374 450.023C250.369 451.245 257.077 447.284 259.641 445.685C265.22 442.23 268.16 434.545 267.994 427.795C267.791 419.491 265.057 420.759 272.782 415.73C274.647 414.563 276.161 413.566 277.891 412.1C282.945 407.893 291.984 400.952 292.187 390.578C291.163 364.151 280.488 364.475 267.414 364.799C261.298 364.947 254.655 365.101 248.232 362.51C242.902 360.293 239.585 350.688 257.773 348.509C266.822 346.556 279.111 346.887 290.011 347.221C302.658 347.603 313.434 347.989 315.119 344.808C317.316 340.764 317.558 333.994 317.334 328.983C311.092 331.722 308.639 333.846 299.712 330.117C294.173 327.796 289.732 324.961 283.834 322.584C293.038 323.297 308.643 335.39 317.806 325.268C318.207 325.752 317.992 325.326 318.275 326.041C318.37 326.837 318.498 327.552 318.634 328.3C318.686 329.309 318.812 330.188 318.935 331.149C319.749 336.477 321.551 342.348 324.139 346.804C327.033 351.755 332.704 357.288 339.731 359.273C339.2 357.18 336.696 352.469 335.642 350.184C331.673 341.618 329.325 333.088 332.802 323.867C333.458 322.197 334.25 320.847 334.791 319.416C335.353 325.71 332.117 348.109 351.42 344.952C348.888 342.464 345.341 339.482 344.796 334.493C344.221 329.472 347.621 324.992 350.295 323.244C359.313 317.129 369.125 319.996 371.211 330.379C375.441 328.682 376.685 324.615 376.873 318.893C381.257 321.726 385.118 333.263 387.086 335.372C388.884 329.707 390.062 325.863 388.535 319.408" fill="#edf1f5" fill-rule="nonzero" opacity="1" stroke="none"/> <path d="M362.512 482.199C366.228 480.225 369.793 476.891 371.653 472.99C373.441 469.265 374.061 460.089 371.683 457.059C371.266 458.327 368.707 463.96 368.655 464.329C368.399 461.329 368.931 459.098 367.645 456.457C366.627 454.345 365.712 452.249 364.485 450.618C361.751 447.085 357.618 444.854 350.495 444.823C351.545 446.979 355.745 447.364 358.331 452.955C359.787 455.978 359.78 459.502 359.112 462.816C358.833 464.244 358.808 464.816 358.085 465.705C357.37 461.462 356.616 458.786 354.254 455.789C353.194 454.408 348.338 450.447 344.934 450.833C345.017 452.516 346.063 454.441 346.576 456.176C349.415 464.791 341.286 469.516 331.268 464.937C317.203 458.571 329.358 440.292 339.239 446.588C340.173 447.8 341.795 448.83 342.842 449.885C344.793 447.746 345.501 444.221 345.366 440.885C345.225 436.752 344.226 435.372 343.113 431.998C346.287 432.583 347.558 434.428 350.081 434.857C350.975 431.511 350.983 428.342 350.055 425.109C349.085 421.823 347.567 420.387 346.353 417.754C346.691 417.43 346.5 417.582 346.99 417.234C348.223 416.569 349.448 415.878 350.681 415.163C352.212 414.307 353.53 413.571 354.914 412.628C359.876 409.419 365.663 404.406 367.315 398.564C368.06 395.765 368.08 389.532 366.089 387.695C361.872 395.863 349.224 407.175 337.984 409.156C338.823 407.079 340.51 404.946 341.575 402.548C344.796 395.448 344.068 384.73 336.036 381.518C334.276 383.589 334.464 388.116 329.212 392.303C326.46 394.477 321.529 397.204 317.996 398.7C317.776 394.239 322.229 384.739 315.505 380.18C311.165 377.221 314.62 383.231 309.266 391.261C308.465 392.439 307.893 393.463 306.736 394.128C307.386 389.439 308.659 385.325 306.95 380.635C305.794 377.414 302.126 373.842 298.838 372.652C297.397 374.431 295.12 380.019 296.114 382.578C297.668 386.612 299.034 388.879 297.696 393.754C295.255 402.945 285.687 410.549 280.678 417.47C277.715 421.552 277.444 423.221 281.196 426.181C285.976 429.999 296.441 431.485 304.242 431.865C298.808 425.325 296.611 417.829 304.986 413.124C312.561 408.069 331.509 418.382 317.496 432.869C307.76 438.196 301.705 439.055 293.056 434.789C290.786 440.711 293.895 454.127 309.266 453.585C307.823 458.812 296.845 457.433 291.331 458.721C290.621 462.683 295.614 466.737 297.914 468.059C301.593 470.204 306.726 470.901 311.948 471.103C311.388 471.971 311.536 471.808 310.017 472.621C309.219 473.06 308.749 473.342 307.953 473.708C301.607 476.754 297.203 475.528 291.547 474.446C291.668 474.908 291.861 475.332 292.047 475.757C292.818 477.188 293.782 478.398 294.914 479.412C295.341 479.763 295.77 480.093 296.25 480.399C296.215 480.399 296.177 480.404 296.144 480.404C307.672 488.683 331.808 481.431 331.808 481.431C349.144 485.595 359.055 483.346 362.512 482.199" fill="#edf1f5" fill-rule="nonzero" opacity="1" stroke="none"/> <path d="M344.756 213.873C343.114 218.407 344.849 234.78 317.708 223.784C312.003 221.48 307.592 218.347 302.111 215.924C301.727 215.761 301.38 215.567 301.059 215.356C300.931 215.276 300.818 215.181 300.7 215.093C300.514 214.958 300.326 214.82 300.155 214.672C300.027 214.561 299.906 214.443 299.787 214.33C299.637 214.182 299.486 214.036 299.343 213.886C299.225 213.763 299.107 213.634 298.991 213.507C298.798 213.293 298.605 213.075 298.416 212.857C298.296 212.718 298.171 212.58 298.047 212.442C297.897 212.269 297.741 212.098 297.583 211.93C297.467 211.807 297.341 211.686 297.219 211.568C297.078 211.425 296.937 211.282 296.787 211.147C296.588 210.973 296.372 210.811 296.154 210.652C296.077 210.595 296.011 210.532 295.928 210.476C296.104 211.649 296.464 214.019 296.611 215.093C296.679 215.116 296.759 215.156 296.827 215.181C300.886 216.685 307.288 221.025 311.331 222.976C320.231 227.246 335.175 235.95 343.491 228.624C346.674 225.777 348.393 217.777 344.756 213.873" fill="#edf1f5" fill-rule="nonzero" opacity="1" stroke="none"/> <path d="M278.429 161.451C277.673 161.451 276.892 161.476 276.081 161.531C276.081 161.531 284.206 172.301 295.042 167.233C295.042 167.233 289.855 161.451 278.429 161.451" fill="#edf1f5" fill-rule="nonzero" opacity="1" stroke="none"/> </g> </g> <g opacity="0"> <path d="M1.65557 1.42569L598.369 1.42569L598.369 748.367L1.65557 748.367L1.65557 1.42569Z" fill="none" opacity="1" stroke="#8b8b8b" stroke-linecap="butt" stroke-linejoin="miter" stroke-width="3"/> <path d="M100 0.284623L100 749.762" fill="none" opacity="1" stroke="#8b8b8b" stroke-linecap="butt" stroke-linejoin="miter" stroke-width="3"/> <path d="M501.208 0.994148L502.577 751.032" fill="none" opacity="1" stroke="#8b8b8b" stroke-linecap="butt" stroke-linejoin="miter" stroke-width="3"/> <path d="M2.49582 100L599.478 100" fill="none" opacity="1" stroke="#8b8b8b" stroke-linecap="butt" stroke-linejoin="miter" stroke-width="3"/> <path d="M0.14145 650L599.769 650" fill="none" opacity="1" stroke="#8b8b8b" stroke-linecap="butt" stroke-linejoin="miter" stroke-width="3"/> </g> <g opacity="1"> <g fill="#0d305f" opacity="1" stroke="none"> <path d="M161.648 643.266C153.18 643.266 145.844 641.641 139.641 638.391C133.438 635.141 128.648 630.5 125.273 624.469C121.898 618.438 120.211 611.266 120.211 602.953C120.211 596.984 121.094 591.703 122.859 587.109C124.625 582.516 127.063 578.641 130.172 575.484C133.281 572.328 136.852 569.945 140.883 568.336C144.914 566.727 149.195 565.922 153.727 565.922C158.477 565.922 162.586 566.672 166.055 568.172C169.523 569.672 172.383 571.859 174.633 574.734L177.023 567.281L189.914 567.281L189.914 598.312L172.805 598.312C172.555 592.312 171.375 588.172 169.266 585.891C167.156 583.609 164.398 582.469 160.992 582.469C158.492 582.469 156.156 583.172 153.984 584.578C151.813 585.984 150.063 588.141 148.734 591.047C147.406 593.953 146.742 597.672 146.742 602.203C146.742 608.891 148.484 614.008 151.969 617.555C155.453 621.102 160.352 622.875 166.664 622.875C170.383 622.875 174.023 622.25 177.586 621C181.148 619.75 184.461 617.828 187.523 615.234L188.789 615.797L188.789 635.578C185.164 638.234 180.891 640.18 175.969 641.414C171.047 642.648 166.273 643.266 161.648 643.266Z"/> <path d="M197.227 641.906L197.227 625.734L204.727 625.734L204.727 583.453L197.227 583.453L197.227 567.281L234.867 567.281L234.867 583.453L228.539 583.453L228.539 596.578L248.227 596.578L248.227 583.453L241.898 583.453L241.898 567.281L279.539 567.281L279.539 583.453L272.039 583.453L272.039 625.734L279.539 625.734L279.539 641.906L241.898 641.906L241.898 625.734L248.227 625.734L248.227 611.953L228.539 611.953L228.539 625.734L234.867 625.734L234.867 641.906L197.227 641.906Z"/> <path d="M285.539 641.906L285.539 625.734L293.039 625.734L293.039 583.453L285.539 583.453L285.539 567.281L328.617 567.281C337.93 567.281 345.086 569.023 350.086 572.508C355.086 575.992 357.586 581.094 357.586 587.812C357.586 592.156 356.508 595.766 354.352 598.641C352.195 601.516 349.273 603.562 345.586 604.781C348.523 605.75 350.703 607.266 352.125 609.328C353.547 611.391 354.289 613.906 354.352 616.875L354.445 620.766C354.508 622.422 354.875 623.664 355.547 624.492C356.219 625.32 357.367 625.734 358.992 625.734L363.961 625.734L363.961 641.906L347.648 641.906C341.68 641.906 337.266 640.523 334.406 637.758C331.547 634.992 330.086 630.938 330.023 625.594L329.93 619.359C329.836 614.359 327.523 611.859 322.992 611.859L316.852 611.859L316.852 625.734L323.18 625.734L323.18 641.906L285.539 641.906ZM324.117 582.984L316.852 582.984L316.852 598.828L324.117 598.828C330.117 598.828 333.117 596.188 333.117 590.906C333.117 585.625 330.117 582.984 324.117 582.984Z"/> <path d="M367.195 641.906L367.195 625.734L375.164 625.734L375.164 583.453L367.195 583.453L367.195 567.281L407.508 567.281L407.508 583.453L399.539 583.453L399.539 625.734L407.508 625.734L407.508 641.906L367.195 641.906Z"/> <path d="M452.461 643.266C446.523 643.266 441.617 642.477 437.742 640.898C433.867 639.32 430.773 637.203 428.461 634.547L426.07 641.906L413.18 641.906L413.18 616.781L430.664 616.781C431.258 620.406 433.07 623.383 436.102 625.711C439.133 628.039 442.961 629.203 447.586 629.203C450.117 629.203 452.07 628.695 453.445 627.68C454.82 626.664 455.508 625.266 455.508 623.484C455.508 621.547 454.742 620.078 453.211 619.078C451.68 618.078 449.648 617.297 447.117 616.734C444.586 616.172 441.805 615.625 438.773 615.094C435.742 614.562 432.711 613.828 429.68 612.891C426.648 611.953 423.867 610.578 421.336 608.766C418.805 606.953 416.773 604.492 415.242 601.383C413.711 598.273 412.945 594.281 412.945 589.406C412.945 584.688 414.078 580.562 416.344 577.031C418.609 573.5 421.867 570.75 426.117 568.781C430.367 566.812 435.461 565.828 441.398 565.828C446.711 565.828 451.148 566.594 454.711 568.125C458.273 569.656 461.18 571.828 463.43 574.641L465.82 567.281L478.711 567.281L478.711 591.469L460.852 591.469C459.945 587.75 458.141 584.891 455.438 582.891C452.734 580.891 449.602 579.891 446.039 579.891C443.508 579.891 441.492 580.367 439.992 581.32C438.492 582.273 437.742 583.672 437.742 585.516C437.742 587.234 438.508 588.547 440.039 589.453C441.57 590.359 443.602 591.094 446.133 591.656C448.664 592.219 451.445 592.797 454.477 593.391C457.508 593.984 460.539 594.797 463.57 595.828C466.602 596.859 469.383 598.305 471.914 600.164C474.445 602.023 476.477 604.5 478.008 607.594C479.539 610.688 480.305 614.609 480.305 619.359C480.305 626.797 477.836 632.641 472.898 636.891C467.961 641.141 461.148 643.266 452.461 643.266Z"/> </g> <g fill="#edf1f5" opacity="1" stroke="none"> <path d="M161.648 636.266C153.18 636.266 145.844 634.641 139.641 631.391C133.438 628.141 128.648 623.5 125.273 617.469C121.898 611.438 120.211 604.266 120.211 595.953C120.211 589.984 121.094 584.703 122.859 580.109C124.625 575.516 127.063 571.641 130.172 568.484C133.281 565.328 136.852 562.945 140.883 561.336C144.914 559.727 149.195 558.922 153.727 558.922C158.477 558.922 162.586 559.672 166.055 561.172C169.523 562.672 172.383 564.859 174.633 567.734L177.023 560.281L189.914 560.281L189.914 591.312L172.805 591.312C172.555 585.312 171.375 581.172 169.266 578.891C167.156 576.609 164.398 575.469 160.992 575.469C158.492 575.469 156.156 576.172 153.984 577.578C151.813 578.984 150.063 581.141 148.734 584.047C147.406 586.953 146.742 590.672 146.742 595.203C146.742 601.891 148.484 607.008 151.969 610.555C155.453 614.102 160.352 615.875 166.664 615.875C170.383 615.875 174.023 615.25 177.586 614C181.148 612.75 184.461 610.828 187.523 608.234L188.789 608.797L188.789 628.578C185.164 631.234 180.891 633.18 175.969 634.414C171.047 635.648 166.273 636.266 161.648 636.266Z"/> <path d="M197.227 634.906L197.227 618.734L204.727 618.734L204.727 576.453L197.227 576.453L197.227 560.281L234.867 560.281L234.867 576.453L228.539 576.453L228.539 589.578L248.227 589.578L248.227 576.453L241.898 576.453L241.898 560.281L279.539 560.281L279.539 576.453L272.039 576.453L272.039 618.734L279.539 618.734L279.539 634.906L241.898 634.906L241.898 618.734L248.227 618.734L248.227 604.953L228.539 604.953L228.539 618.734L234.867 618.734L234.867 634.906L197.227 634.906Z"/> <path d="M285.539 634.906L285.539 618.734L293.039 618.734L293.039 576.453L285.539 576.453L285.539 560.281L328.617 560.281C337.93 560.281 345.086 562.023 350.086 565.508C355.086 568.992 357.586 574.094 357.586 580.812C357.586 585.156 356.508 588.766 354.352 591.641C352.195 594.516 349.273 596.562 345.586 597.781C348.523 598.75 350.703 600.266 352.125 602.328C353.547 604.391 354.289 606.906 354.352 609.875L354.445 613.766C354.508 615.422 354.875 616.664 355.547 617.492C356.219 618.32 357.367 618.734 358.992 618.734L363.961 618.734L363.961 634.906L347.648 634.906C341.68 634.906 337.266 633.523 334.406 630.758C331.547 627.992 330.086 623.938 330.023 618.594L329.93 612.359C329.836 607.359 327.523 604.859 322.992 604.859L316.852 604.859L316.852 618.734L323.18 618.734L323.18 634.906L285.539 634.906ZM324.117 575.984L316.852 575.984L316.852 591.828L324.117 591.828C330.117 591.828 333.117 589.188 333.117 583.906C333.117 578.625 330.117 575.984 324.117 575.984Z"/> <path d="M367.195 634.906L367.195 618.734L375.164 618.734L375.164 576.453L367.195 576.453L367.195 560.281L407.508 560.281L407.508 576.453L399.539 576.453L399.539 618.734L407.508 618.734L407.508 634.906L367.195 634.906Z"/> <path d="M452.461 636.266C446.523 636.266 441.617 635.477 437.742 633.898C433.867 632.32 430.773 630.203 428.461 627.547L426.07 634.906L413.18 634.906L413.18 609.781L430.664 609.781C431.258 613.406 433.07 616.383 436.102 618.711C439.133 621.039 442.961 622.203 447.586 622.203C450.117 622.203 452.07 621.695 453.445 620.68C454.82 619.664 455.508 618.266 455.508 616.484C455.508 614.547 454.742 613.078 453.211 612.078C451.68 611.078 449.648 610.297 447.117 609.734C444.586 609.172 441.805 608.625 438.773 608.094C435.742 607.562 432.711 606.828 429.68 605.891C426.648 604.953 423.867 603.578 421.336 601.766C418.805 599.953 416.773 597.492 415.242 594.383C413.711 591.273 412.945 587.281 412.945 582.406C412.945 577.688 414.078 573.562 416.344 570.031C418.609 566.5 421.867 563.75 426.117 561.781C430.367 559.812 435.461 558.828 441.398 558.828C446.711 558.828 451.148 559.594 454.711 561.125C458.273 562.656 461.18 564.828 463.43 567.641L465.82 560.281L478.711 560.281L478.711 584.469L460.852 584.469C459.945 580.75 458.141 577.891 455.438 575.891C452.734 573.891 449.602 572.891 446.039 572.891C443.508 572.891 441.492 573.367 439.992 574.32C438.492 575.273 437.742 576.672 437.742 578.516C437.742 580.234 438.508 581.547 440.039 582.453C441.57 583.359 443.602 584.094 446.133 584.656C448.664 585.219 451.445 585.797 454.477 586.391C457.508 586.984 460.539 587.797 463.57 588.828C466.602 589.859 469.383 591.305 471.914 593.164C474.445 595.023 476.477 597.5 478.008 600.594C479.539 603.688 480.305 607.609 480.305 612.359C480.305 619.797 477.836 625.641 472.898 629.891C467.961 634.141 461.148 636.266 452.461 636.266Z"/> </g> </g> <g opacity="1"> <g opacity="1"> <path d="M382.605 304.175C387.88 290.956 390.459 286.909 405.926 290.726C407.189 281.652 412.218 277.141 422.789 278.59C423.874 267.939 424.974 257.269 426.108 246.466C411.642 246.551 409.795 258.163 403.646 263.655C403.963 254.524 398.774 251.422 391.594 249.407C395.141 260.057 393.281 262.365 385.466 269.813C385.78 253.289 378.594 253.803 369.457 254.816C377.239 270.023 361.539 271.808 344.865 275.569C347.396 284.484 366.407 300.683 379.148 303.809" fill="#0c2f5f" fill-rule="nonzero" opacity="1" stroke="none"/> <path d="M499.851 432.413C500.459 427.65 501.035 422.855 501.679 418.027C493.359 417.357 455.65 414.83 452.168 414.642C451.745 418.174 451.291 422.014 450.906 425.554C449.306 425.452 440.208 424.705 438.905 424.763C436.338 446.636 433.883 468.079 431.433 489.155C435.468 489.409 439.464 489.585 443.464 489.796C443.088 493.298 442.707 496.739 442.328 500.197C458.858 501.01 475.272 501.77 491.573 502.474C492.241 497.311 492.915 492.07 493.673 486.83C483.435 486.291 473.155 485.773 462.892 485.222C463.288 481.836 463.722 478.44 464.165 475.006C474.591 475.545 485.016 476.056 495.406 476.589C496.598 467.593 497.795 458.559 499.05 449.439C493.012 449.094 486.976 448.74 480.988 448.348C481.699 442.718 482.457 437.045 483.211 431.383C488.772 431.757 494.331 432.085 499.851 432.413" fill="#0c2f5f" fill-rule="nonzero" opacity="1" stroke="none"/> <path d="M420.595 340.931C420.595 340.931 415.833 387.725 413.55 410.408C411.299 432.733 409.124 454.711 406.98 476.696C406.673 479.994 405.552 491.656 405.552 491.656C405.189 495.343 409.298 498.909 414.142 499.39C418.986 499.871 424.558 497.265 424.927 493.58L426.621 476.483C426.621 476.455 426.619 476.425 426.621 476.396C428.456 458.336 430.33 440.113 432.243 421.645C434.701 397.861 439.954 349.004 439.954 349.004" fill="#0c2f5f" fill-rule="nonzero" opacity="1" stroke="none"/> <path d="M442.985 234.354C440.599 234.354 438.248 234.482 436.184 234.797C429.675 235.816 430.032 236.281 429.428 242.748C427.511 262.832 425.75 280.81 423.852 300.375C424.332 300.232 444.229 294.267 444.927 294.054C445.323 291.486 445.417 290.562 445.809 287.858C441.882 286.969 431.215 283.807 429.094 278.2C431.588 272.545 436.871 271.805 439.376 270.995C436.887 269.477 433.364 268.001 431.979 262.003C434.807 257.236 437.461 256.875 440.304 255.969C437.59 254.309 434.649 252.604 433.352 249.856C436.146 244.488 444.897 242.521 450.396 241.548C450.404 241.563 451.358 234.687 451.368 234.702C448.769 234.531 445.852 234.354 442.985 234.354Z" fill="#0c2f5f" fill-rule="nonzero" opacity="1" stroke="none"/> <g opacity="1"> <path d="M400.812 135.126C401.566 123.863 411.309 115.343 422.572 116.098C433.836 116.852 442.355 126.595 441.601 137.858C440.846 149.122 431.104 157.641 419.84 156.887C408.576 156.132 400.057 146.39 400.812 135.126Z" fill="none" opacity="1" stroke="#0c2f5e" stroke-linecap="butt" stroke-linejoin="round" stroke-width="12"/> <path d="M397.683 181.833C398.438 170.57 408.18 162.051 419.444 162.805C430.707 163.559 439.227 173.302 438.472 184.566C437.718 195.829 427.975 204.349 416.712 203.594C405.448 202.84 396.929 193.097 397.683 181.833Z" fill="none" opacity="1" stroke="#0c2f5e" stroke-linecap="butt" stroke-linejoin="round" stroke-width="12"/> <path d="M453.431 138.651C454.185 127.387 463.928 118.868 475.191 119.622C486.455 120.377 494.974 130.119 494.22 141.383C493.465 152.646 483.723 161.166 472.459 160.411C461.195 159.657 452.676 149.914 453.431 138.651Z" fill="none" opacity="1" stroke="#0c2f5e" stroke-linecap="butt" stroke-linejoin="round" stroke-width="12"/> <path d="M450.302 185.358C451.056 174.094 460.799 165.575 472.063 166.329C483.326 167.084 491.846 176.826 491.091 188.09C490.337 199.354 480.594 207.873 469.33 207.119C458.067 206.364 449.548 196.622 450.302 185.358Z" fill="none" opacity="1" stroke="#0c2f5e" stroke-linecap="butt" stroke-linejoin="round" stroke-width="12"/> <path d="M425.803 206.739L444.333 184.952L459.889 209.202L458.631 227.982L452.896 229.441C452.896 229.441 452.541 232.513 451.614 232.983C450.688 233.454 431.553 232.05 430.799 231.479C430.045 230.909 429.983 227.786 429.983 227.786L424.545 225.519L425.803 206.739Z" fill="#0c2f5f" fill-rule="nonzero" opacity="1" stroke="none"/> <path d="M435.841 140.527L438.457 117.314L449.602 107.107L459.291 118.833L458.77 142.252L435.841 140.527Z" fill="#0c2f5f" fill-rule="nonzero" opacity="1" stroke="none"/> </g> <path d="M458.457 244.919C458.457 244.919 456.148 243.255 452.967 243.275C446.494 243.315 438.55 246.672 436.835 249.856C437.832 252.339 442.134 255.453 444.966 256.274C442.125 256.575 436.456 258.461 434.928 262.083C435.772 266.826 441.983 270.396 443.739 271.17C441.875 271.573 434.477 274.364 432.344 278.2C434.069 281.967 445.601 288.381 454.375 286.171C458.881 284.987 461.179 282.852 459.862 277.406C459.191 274.537 460.353 274.789 461.566 272.592C464.709 266.949 461.513 261.465 461.497 259.469C461.476 256.943 466.981 250.83 458.457 244.919" fill="#0c2f5f" fill-rule="nonzero" opacity="1" stroke="none"/> <path d="M441.67 298.265C437.384 299.403 411.415 307.432 411.44 307.433C411.495 309.58 408.939 315.272 405.973 316.755C410.704 321.171 413.654 330.379 412.725 337.459C418.894 337.355 414.267 335.76 425.946 340.398C433.61 343.44 446.762 350.913 449.895 340.812C453.573 328.952 448.236 329.623 443.631 329.266C448.115 329.059 453.282 329.806 453.691 321.548C454.099 313.29 448.57 313.588 444.549 312.88C448.922 312.78 454.25 314.036 453.938 305.492C453.608 296.479 445.956 297.128 441.67 298.265Z" fill="#0c2f5f" fill-rule="nonzero" opacity="1" stroke="none"/> <path d="M383.38 493.837C387.142 491.839 390.75 488.464 392.634 484.515C394.444 480.744 395.071 471.456 392.664 468.388C392.242 469.673 389.652 475.375 389.599 475.748C389.833 466.505 386.62 463.519 385.378 461.868C382.61 458.292 378.427 456.034 371.215 456.003C373.466 457.075 376.53 458.575 379.148 464.234C380.622 467.294 380.615 470.861 379.939 474.216C379.656 475.662 379.631 476.24 378.899 477.14C378.175 472.846 377.412 470.137 375.021 467.103C373.948 465.705 369.033 461.695 365.587 462.086C368.426 467.983 368.534 484.502 351.753 476.363C337.691 469.543 349.819 451.416 359.822 457.789C361.353 458.858 362.409 460.059 363.469 461.126C365.444 458.961 366.16 455.393 366.024 452.016C365.888 448.639 364.869 446.435 363.744 443.02C367.202 443.244 368.806 443.74 370.797 445.914C371.702 442.527 371.709 439.319 370.771 436.047C369.832 432.774 368.252 431.266 367.023 428.601C382.647 424.712 386.609 415.7 388.242 409.175C388.953 406.331 389.017 400.032 387.002 398.173C385.817 407.932 375.137 414.207 360.551 415.218C369.804 402.798 364.71 395.171 356.579 391.921C356.46 394.216 355.183 401.55 343.98 400.703C347.859 388.323 340.393 385.102 338.148 383.601C338.595 386.153 341.537 390.867 333.743 394.793C337.107 381.804 323.429 379.315 320.101 378.111C325.38 393.498 325.197 402.43 300.162 421.584C303.23 425.233 306.415 430.504 304.68 437.938C309.519 441.803 316.498 442.501 324.395 442.885C318.895 436.265 316.671 428.677 325.148 423.915C332.816 418.797 351.996 429.236 337.812 443.902C330.002 451.976 321.827 450.164 313.072 445.845C310.774 451.84 311.514 463.47 326.147 465C324.686 470.291 320.101 472.437 311.326 470.071C310.607 474.081 315.111 481.539 332.196 482.604C327.692 488.233 317.27 487.085 311.545 485.989C325.251 502.491 333.486 502.296 351.58 494.087C371.432 503.368 379.881 494.998 383.38 493.837" fill="#0c2f5f" fill-rule="nonzero" opacity="1" stroke="none"/> <path d="M287.595 189.706C291.893 182.811 313.163 185.709 313.481 186.323C313.799 186.937 295.224 183.837 290.375 191.905C286.077 199.069 290.257 213.06 289.519 213.411C288.78 213.763 283.541 196.556 287.595 189.706ZM315.544 176.469C313.529 182.592 296.767 175.652 293.423 169.569C299.142 167.098 318.52 167.424 315.544 176.469ZM409.723 329.048C408.134 322.426 405.412 321.354 403.506 316.894C404.414 315.613 405.38 314.854 406.383 313.298C409.1 309.176 410.134 302.406 404.729 300.238C402.543 307.054 397.058 313.55 389.22 313.847C367.351 314.672 331.285 285.439 307.325 277.709C322.286 278.905 358.89 304.026 363.849 301.771C354.766 295.919 339.219 276.787 339.203 269.854C339.192 264.889 344.102 262.717 348.564 262.248C334.712 256.717 328.94 259.097 324.113 263.671C326.282 253.877 325.467 249.367 316.658 243.379C299.142 264.849 279.688 236.569 294.446 222.489C298.108 218.995 307.326 236.128 313.168 231.89C319.01 227.652 316.673 227.582 316.251 223.977C319.926 225.881 327.185 229.545 331.424 231.59C340.434 235.913 357.432 246.128 364.125 237.15C370.003 229.267 367.463 222.716 364.33 222.821C361.198 222.927 366.507 240.258 339.023 230.512C333.153 228.431 316.84 221.36 313.74 219.608C307.818 216.262 297.302 211.26 300.824 201.159C303.797 192.632 313.404 188.441 322.291 201.406C326.773 207.943 321.202 215.299 320.692 219.946C329.842 225.826 332.435 221.318 336.717 216.658C339.419 213.722 341.403 205.809 335.921 198.491C340.899 202.408 340.898 209.052 342.226 213.292C342.888 215.405 345.677 212.382 346.82 211.372C353.902 205.105 361.622 200.75 326.333 175.535C320.101 160.644 307.937 162.908 302.627 159.554C298.498 156.946 300.19 147.871 309.445 145.727C303.997 141.426 299.663 140.369 291.869 148.001C288.375 139.246 293.608 128.316 299.223 125.852C289.068 122.796 280.056 139.113 273.881 134.738C267.151 129.97 273.116 111.791 287.996 113.543C286.284 110.855 274.512 109.945 268.378 111.834C251.937 116.898 250.397 133.647 245.396 136.515C237.431 141.083 237.726 126.48 242.128 121.115C225.992 129.042 222.88 135.329 220.799 149.574C217.32 149.66 212.731 149.172 209.198 141.25C210.375 150.157 210.035 156.149 216.844 160.861C207.64 158.2 193.633 167.204 194.007 193.169C200.544 179.134 208.223 180.031 213.36 186.197C184.808 209.374 200.858 231.501 202.181 235.501C206.644 226.772 216.558 223.703 220.804 233.474C208.326 241.512 208.949 254.307 210.02 257.877C211.948 254.552 227.624 252.134 231.265 267.062C233.87 277.743 222.623 286.431 214.104 285.741C217.979 291.737 230.918 297.753 243.458 289.184C255.321 305.764 217.367 328.581 200.019 337.391C185.698 344.664 178.436 360.611 178.426 372.415C178.435 372.82 178.191 372.926 177.852 373.184C174.766 375.466 169.592 380.788 161.912 377.423C156.765 375.136 153.795 370.092 153.022 363.873C152.177 356.666 155.85 352.237 159.032 347.399C162.214 342.561 173.187 322.971 176.707 315.908C180.227 308.845 196.404 280.585 185.988 263.211C179.477 252.119 148.213 221.661 140.645 213.559C134.827 207.331 125.979 199.057 128.497 189.528C129.945 183.916 134.868 179.673 139 177.474C152.669 170.115 153.655 188.767 158.448 189.977C167.12 192.167 169.486 183.84 166.988 176.854C162.929 165.502 146.569 154.149 126.737 176.414C117.1 187.286 118.977 201.791 132.436 215.308C136.396 218.604 140.31 221.854 144.294 225.092C132.319 223.752 124.999 226.469 117.02 230.998C110.859 234.532 99.6769 243.719 102.18 255.075C104.235 264.526 112.359 271.532 120.369 274.737C132.634 279.698 148.363 271.179 147.55 266.836C146.267 259.974 135.619 269.832 125.302 267.055C101.584 260.671 108.864 233.45 131.955 228.886C126.818 231.409 121.251 235.279 118.418 239.363C111.444 249.762 121.872 263.96 129.757 259.355C133.595 257.114 132.273 255.35 131.185 251.169C126.087 231.442 179.963 247.003 182.626 275.887C183.32 283.658 180.784 289.824 179.083 295.043C177.383 300.262 170.997 320.03 151.568 337.597C132.139 355.165 129.075 374.152 151.27 391.263C164.709 401.572 180.284 395.646 191.739 394.256C207.25 412.403 228.13 411.704 268.617 407.26C226.103 422.48 206.899 414.517 194.046 409.593C189.414 407.657 198.616 421.51 182.749 420.687C178.716 420.477 174.359 414.401 173.496 414.068C172.736 424.251 178.615 430.51 183.342 431.697C179.688 435.967 176.46 446.64 185.977 453.341C185.901 448.414 188.382 442.789 193.117 441.056C195.866 440.068 203.321 438.106 206.348 437.61C194.783 455.727 196.365 476.82 212.451 487.904C201.107 491.342 185.557 481.204 182.322 476.561C182.551 483.864 190.27 491.855 200.304 495.033C195.981 495.627 192.782 495.433 186.063 494.093C188.607 496.723 190.32 497.407 195.024 498.726C199.977 500.032 202.687 500.056 207.391 498.391C206.329 504.045 207.221 506.331 211.404 507.125C210.534 501.892 217.039 497.09 218.669 497.513C219.343 497.688 218.315 500.779 221.393 502.06C221.368 499.705 224.218 498.791 225.583 499.641C228.78 501.634 239.929 506.013 257.382 504.686C274.835 503.36 295.24 492.96 295.218 492.96C307.979 485.407 306.866 471.643 302.532 467.144C301.867 473.636 300.141 479.818 293.81 483.597C295.123 481.81 297.757 477.449 296.334 471.482C295.493 468.153 291.525 460.227 288.541 459.539C289.878 465.736 289.543 472.437 286.104 476.772C283.805 479.603 280.173 482.315 276.178 483.439C274.379 477.264 275.29 471.412 277.793 466.082C267.301 469.844 266.481 479.534 263.738 481.275C230.95 485.679 226.097 449.755 246.659 441.968C260.977 436.545 290.514 429.758 290.718 451.212C302.281 446.435 303.38 430.192 295.823 421.167C326.197 400.997 319.458 384.943 313.212 371.287C300.391 402.586 255.308 385.135 261.603 363.197C267.898 341.259 308.497 361.221 325.242 358.961C332.971 357.918 340.215 352.188 337.648 338.74C332.06 341.902 328.846 343.663 319.81 339.889C314.203 337.539 309.707 334.669 303.737 332.263C313.054 332.985 328.851 345.226 338.126 334.98C342.145 339.192 339.533 345.606 344.537 356.78C347.466 361.792 353.206 367.393 360.32 369.403C355.256 362.277 345.799 344.975 355.319 329.056C355.888 335.427 352.612 358.102 372.152 354.906C369.59 352.387 365.998 349.368 365.447 344.318C364.865 339.236 368.306 334.7 371.013 332.932C380.142 326.741 390.075 329.643 392.186 340.153C396.468 338.436 397.727 334.319 397.918 328.527C402.355 331.394 406.264 343.073 408.256 345.208C410.076 339.473 411.269 335.582 409.723 329.048Z" fill="#0c2f5f" fill-rule="nonzero" opacity="1" stroke="none"/> </g> </g> <g opacity="1"> <g opacity="1"> <path d="M379.605 297.392C384.88 284.173 387.459 280.126 402.926 283.944C404.189 274.869 409.218 270.359 419.789 271.807C420.874 261.157 421.974 250.486 423.108 239.684C408.642 239.769 406.795 251.381 400.646 256.873C400.963 247.742 395.774 244.64 388.594 242.624C392.141 253.274 390.281 255.583 382.466 263.031C382.78 246.507 375.594 247.02 366.457 248.034C374.239 263.241 358.539 265.026 341.865 268.787C344.396 277.701 363.407 293.901 376.148 297.027" fill="#edf1f5" fill-rule="nonzero" opacity="1" stroke="none"/> <path d="M496.851 425.63C497.459 420.868 498.035 416.073 498.679 411.245C490.359 410.575 452.65 408.047 449.168 407.859C448.745 411.392 448.291 415.232 447.906 418.772C446.306 418.67 437.208 417.922 435.905 417.981C433.338 439.853 430.883 461.296 428.433 482.373C432.468 482.627 436.464 482.803 440.464 483.013C440.088 486.516 439.707 489.956 439.328 493.415C455.858 494.228 472.272 494.988 488.573 495.692C489.241 490.528 489.915 485.288 490.673 480.048C480.435 479.509 470.155 478.99 459.892 478.439C460.288 475.054 460.722 471.657 461.165 468.224C471.591 468.763 482.016 469.273 492.406 469.806C493.598 460.811 494.795 451.777 496.05 442.657C490.012 442.311 483.976 441.958 477.988 441.566C478.699 435.935 479.457 430.263 480.211 424.601C485.772 424.974 491.331 425.302 496.851 425.63" fill="#edf1f5" fill-rule="nonzero" opacity="1" stroke="none"/> <path d="M417.595 334.148C417.595 334.148 412.833 380.943 410.55 403.625C408.299 425.95 406.124 447.929 403.98 469.913C403.673 473.212 402.552 484.874 402.552 484.874C402.189 488.561 406.298 492.127 411.142 492.608C415.986 493.089 421.558 490.482 421.927 486.797L423.621 469.7C423.621 469.672 423.619 469.642 423.621 469.613C425.456 451.554 427.33 433.33 429.243 414.863C431.701 391.079 436.954 342.222 436.954 342.222" fill="#edf1f5" fill-rule="nonzero" opacity="1" stroke="none"/> <path d="M439.985 227.572C437.599 227.572 435.248 227.699 433.184 228.014C426.675 229.033 427.032 229.498 426.428 235.966C424.511 256.049 422.75 274.028 420.852 293.593C421.332 293.449 441.229 287.484 441.927 287.272C442.323 284.704 442.417 283.779 442.809 281.075C438.882 280.186 428.215 277.024 426.094 271.417C428.588 265.763 433.871 265.022 436.376 264.212C433.887 262.694 430.364 261.219 428.979 255.221C431.807 250.454 434.461 250.092 437.304 249.187C434.59 247.526 431.649 245.821 430.352 243.074C433.146 237.706 441.897 235.738 447.396 234.765C447.404 234.78 448.358 227.905 448.368 227.92C445.769 227.749 442.852 227.572 439.985 227.572Z" fill="#edf1f5" fill-rule="nonzero" opacity="1" stroke="none"/> <g opacity="1"> <path d="M397.812 128.344C398.566 117.08 408.309 108.561 419.572 109.315C430.836 110.07 439.355 119.812 438.601 131.076C437.846 142.34 428.104 150.859 416.84 150.105C405.576 149.35 397.057 139.607 397.812 128.344Z" fill="none" opacity="1" stroke="#edf1f5" stroke-linecap="butt" stroke-linejoin="round" stroke-width="12"/> <path d="M394.683 175.051C395.438 163.787 405.18 155.268 416.444 156.023C427.707 156.777 436.227 166.52 435.472 177.783C434.718 189.047 424.975 197.566 413.712 196.812C402.448 196.057 393.929 186.315 394.683 175.051Z" fill="none" opacity="1" stroke="#edf1f5" stroke-linecap="butt" stroke-linejoin="round" stroke-width="12"/> <path d="M450.431 131.868C451.185 120.605 460.928 112.085 472.191 112.84C483.455 113.594 491.974 123.337 491.22 134.601C490.465 145.864 480.723 154.383 469.459 153.629C458.195 152.875 449.676 143.132 450.431 131.868Z" fill="none" opacity="1" stroke="#edf1f5" stroke-linecap="butt" stroke-linejoin="round" stroke-width="12"/> <path d="M447.302 178.576C448.056 167.312 457.799 158.793 469.063 159.547C480.326 160.302 488.846 170.044 488.091 181.308C487.337 192.571 477.594 201.091 466.33 200.336C455.067 199.582 446.548 189.839 447.302 178.576Z" fill="none" opacity="1" stroke="#edf1f5" stroke-linecap="butt" stroke-linejoin="round" stroke-width="12"/> <path d="M422.803 199.957L441.333 178.169L456.889 202.419L455.631 221.199L449.896 222.659C449.896 222.659 449.541 225.73 448.614 226.201C447.688 226.672 428.553 225.268 427.799 224.697C427.045 224.126 426.983 221.004 426.983 221.004L421.545 218.737L422.803 199.957Z" fill="#edf1f5" fill-rule="nonzero" opacity="1" stroke="none"/> <path d="M432.841 133.744L435.457 110.531L446.602 100.324L456.291 112.051L455.77 135.469L432.841 133.744Z" fill="#edf1f5" fill-rule="nonzero" opacity="1" stroke="none"/> </g> <path d="M455.457 238.136C455.457 238.136 453.148 236.473 449.967 236.492C443.494 236.532 435.55 239.89 433.835 243.074C434.832 245.557 439.134 248.67 441.966 249.492C439.125 249.793 433.456 251.679 431.928 255.3C432.772 260.044 438.983 263.613 440.739 264.387C438.875 264.791 431.477 267.581 429.344 271.417C431.069 275.185 442.601 281.599 451.375 279.388C455.881 278.204 458.179 276.069 456.862 270.623C456.191 267.755 457.353 268.006 458.566 265.81C461.709 260.166 458.513 254.683 458.497 252.686C458.476 250.16 463.981 244.047 455.457 238.136" fill="#edf1f5" fill-rule="nonzero" opacity="1" stroke="none"/> <path d="M438.67 291.483C434.384 292.62 408.415 300.649 408.44 300.651C408.495 302.798 405.939 308.49 402.973 309.973C407.704 314.388 410.654 323.597 409.725 330.677C415.894 330.572 411.267 328.978 422.946 333.615C430.61 336.658 443.762 344.131 446.895 334.03C450.573 322.169 445.236 322.84 440.631 322.484C445.115 322.276 450.282 323.023 450.691 314.765C451.099 306.507 445.57 306.806 441.549 306.098C445.922 305.997 451.25 307.253 450.938 298.71C450.608 289.696 442.956 290.346 438.67 291.483Z" fill="#edf1f5" fill-rule="nonzero" opacity="1" stroke="none"/> <path d="M380.38 487.054C384.142 485.057 387.75 481.682 389.634 477.733C391.444 473.962 392.071 464.673 389.664 461.606C389.242 462.89 386.652 468.592 386.599 468.966C386.833 459.722 383.62 456.737 382.378 455.086C379.61 451.51 375.427 449.251 368.215 449.22C370.466 450.293 373.53 451.792 376.148 457.452C377.622 460.511 377.615 464.079 376.939 467.434C376.656 468.879 376.631 469.458 375.899 470.358C375.175 466.063 374.412 463.354 372.021 460.321C370.948 458.923 366.033 454.912 362.587 455.304C365.426 461.2 365.534 477.719 348.753 469.581C334.691 462.761 346.819 444.633 356.822 451.007C358.353 452.075 359.409 453.276 360.469 454.344C362.444 452.178 363.16 448.61 363.024 445.233C362.888 441.856 361.869 439.653 360.744 436.238C364.202 436.462 365.806 436.958 367.797 439.131C368.702 435.744 368.709 432.537 367.771 429.264C366.832 425.992 365.252 424.484 364.023 421.818C379.647 417.93 383.609 408.918 385.242 402.393C385.953 399.549 386.017 393.25 384.002 391.39C382.817 401.15 372.137 407.425 357.551 408.435C366.804 396.015 361.71 388.389 353.579 385.138C353.46 387.434 352.183 394.767 340.98 393.921C344.859 381.541 337.393 378.32 335.148 376.819C335.595 379.371 338.537 384.085 330.743 388.011C334.107 375.022 320.429 372.533 317.101 371.328C322.38 386.715 322.197 395.647 297.162 414.802C300.23 418.451 303.415 423.721 301.68 431.156C306.519 435.021 313.498 435.719 321.395 436.103C315.895 429.483 313.671 421.894 322.148 417.132C329.816 412.014 348.996 422.454 334.812 437.119C327.002 445.194 318.827 443.381 310.072 439.062C307.774 445.058 308.514 456.687 323.147 458.218C321.686 463.509 317.101 465.655 308.326 463.289C307.607 467.299 312.111 474.757 329.196 475.822C324.692 481.45 314.27 480.302 308.545 479.207C322.251 495.709 330.486 495.514 348.58 487.305C368.432 496.585 376.881 488.216 380.38 487.054" fill="#edf1f5" fill-rule="nonzero" opacity="1" stroke="none"/> <path d="M284.595 182.924C288.893 176.029 310.163 178.927 310.481 179.541C310.799 180.155 292.224 177.054 287.375 185.123C283.077 192.287 287.257 206.278 286.519 206.629C285.78 206.98 280.541 189.774 284.595 182.924ZM312.544 169.686C310.529 175.809 293.767 168.869 290.423 162.787C296.142 160.316 315.52 160.642 312.544 169.686ZM406.723 322.266C405.134 315.644 402.412 314.572 400.506 310.111C401.414 308.831 402.38 308.071 403.383 306.516C406.1 302.393 407.134 295.624 401.729 293.456C399.543 300.272 394.058 306.767 386.22 307.064C364.351 307.89 328.285 278.656 304.325 270.927C319.286 272.123 355.89 297.243 360.849 294.989C351.766 289.137 336.219 270.004 336.203 263.071C336.192 258.107 341.102 255.934 345.564 255.465C331.712 249.935 325.94 252.315 321.113 256.889C323.282 247.094 322.467 242.585 313.658 236.597C296.142 258.067 276.688 229.786 291.446 215.707C295.108 212.212 304.326 229.345 310.168 225.107C316.01 220.869 313.673 220.799 313.251 217.195C316.926 219.099 324.185 222.763 328.424 224.808C337.434 229.131 354.432 239.346 361.125 230.368C367.003 222.484 364.463 215.933 361.33 216.039C358.198 216.144 363.507 233.475 336.023 223.73C330.153 221.648 313.84 214.578 310.74 212.826C304.818 209.48 294.302 204.478 297.824 194.376C300.797 185.85 310.404 181.659 319.291 194.623C323.773 201.161 318.202 208.517 317.692 213.163C326.842 219.044 329.435 214.536 333.717 209.876C336.419 206.94 338.403 199.027 332.921 191.708C337.899 195.625 337.898 202.27 339.226 206.51C339.888 208.622 342.677 205.6 343.82 204.589C350.902 198.323 358.622 193.968 323.333 168.752C317.101 153.862 304.937 156.126 299.627 152.771C295.498 150.164 297.19 141.089 306.445 138.945C300.997 134.644 296.663 133.586 288.869 141.219C285.375 132.464 290.608 121.534 296.223 119.07C286.068 116.014 277.056 132.331 270.881 127.956C264.151 123.188 270.116 105.009 284.996 106.761C283.284 104.072 271.512 103.162 265.378 105.052C248.937 110.115 247.397 126.864 242.396 129.732C234.431 134.301 234.726 119.698 239.128 114.333C222.992 122.26 219.88 128.547 217.799 142.792C214.32 142.877 209.731 142.389 206.198 134.468C207.375 143.375 207.035 149.367 213.844 154.079C204.64 151.417 190.633 160.422 191.007 186.387C197.544 172.352 205.223 173.248 210.36 179.415C181.808 202.592 197.858 224.719 199.181 228.719C203.644 219.99 213.558 216.921 217.804 226.691C205.326 234.729 205.949 247.525 207.02 251.095C208.948 247.77 224.624 245.351 228.265 260.28C230.87 270.961 219.623 279.648 211.104 278.959C214.979 284.955 227.918 290.971 240.458 282.401C252.321 298.981 214.367 321.799 197.019 330.609C182.698 337.882 175.436 353.828 175.426 365.632C175.435 366.038 175.191 366.143 174.852 366.402C171.766 368.684 166.592 374.005 158.912 370.64C153.765 368.354 150.795 363.31 150.022 357.091C149.177 349.884 152.85 345.454 156.032 340.617C159.214 335.779 170.187 316.188 173.707 309.126C177.227 302.063 193.404 273.803 182.988 256.428C176.477 245.337 145.213 214.878 137.645 206.776C131.827 200.549 122.979 192.274 125.497 182.745C126.945 177.134 131.868 172.89 136 170.692C149.669 163.333 150.655 181.985 155.448 183.195C164.12 185.384 166.486 177.058 163.988 170.071C159.929 158.72 143.569 147.366 123.737 169.632C114.1 180.504 115.977 195.009 129.436 208.526C133.396 211.822 137.31 215.072 141.294 218.309C129.319 216.97 121.999 219.687 114.02 224.215C107.859 227.75 96.6769 236.937 99.1801 248.293C101.235 257.744 109.359 264.75 117.369 267.955C129.634 272.915 145.363 264.396 144.55 260.054C143.267 253.191 132.619 263.049 122.302 260.273C98.5843 253.889 105.864 226.667 128.955 222.103C123.818 224.627 118.251 228.497 115.418 232.581C108.444 242.98 118.872 257.178 126.757 252.573C130.595 250.331 129.273 248.567 128.185 244.387C123.087 224.66 176.963 240.221 179.626 269.104C180.32 276.875 177.784 283.041 176.083 288.26C174.383 293.479 167.997 313.247 148.568 330.815C129.139 348.382 126.075 367.37 148.27 384.481C161.709 394.79 177.284 388.864 188.739 387.474C204.25 405.621 225.13 404.921 265.617 400.477C223.103 415.698 203.899 407.735 191.046 402.811C186.414 400.874 195.616 414.728 179.749 413.904C175.716 413.695 171.359 407.619 170.496 407.286C169.736 417.468 175.615 423.728 180.342 424.914C176.688 429.185 173.46 439.858 182.977 446.559C182.901 441.632 185.382 436.007 190.117 434.274C192.866 433.286 200.321 431.324 203.348 430.828C191.783 448.945 193.365 470.038 209.451 481.121C198.107 484.56 182.557 474.422 179.322 469.778C179.551 477.081 187.27 485.073 197.304 488.251C192.981 488.845 189.782 488.65 183.063 487.311C185.607 489.94 187.32 490.625 192.024 491.944C196.977 493.25 199.687 493.274 204.391 491.609C203.329 497.262 204.221 499.548 208.404 500.343C207.534 495.11 214.039 490.307 215.669 490.731C216.343 490.906 215.315 493.997 218.393 495.277C218.368 492.922 221.218 492.008 222.583 492.859C225.78 494.852 236.929 499.23 254.382 497.904C271.835 496.578 292.24 486.178 292.218 486.178C304.979 478.625 303.866 464.861 299.532 460.361C298.867 466.853 297.141 473.036 290.81 476.815C292.123 475.028 294.757 470.666 293.334 464.7C292.493 461.37 288.525 453.445 285.541 452.756C286.878 458.954 286.543 465.655 283.104 469.99C280.805 472.82 277.173 475.532 273.178 476.656C271.379 470.482 272.29 464.63 274.793 459.299C264.301 463.062 263.481 472.751 260.738 474.492C227.95 478.897 223.097 442.972 243.659 435.185C257.977 429.763 287.514 422.976 287.718 444.43C299.281 439.653 300.38 423.41 292.823 414.385C323.197 394.214 316.458 378.161 310.212 364.505C297.391 395.804 252.308 378.352 258.603 356.414C264.898 334.476 305.497 354.439 322.242 352.179C329.971 351.135 337.215 345.405 334.648 331.958C329.06 335.12 325.846 336.88 316.81 333.106C311.203 330.757 306.707 327.887 300.737 325.48C310.054 326.202 325.851 338.443 335.126 328.198C339.145 332.409 336.533 338.823 341.537 349.998C344.466 355.01 350.206 360.61 357.32 362.62C352.256 355.495 342.799 338.193 352.319 322.274C352.888 328.644 349.612 351.319 369.152 348.123C366.59 345.605 362.998 342.586 362.447 337.536C361.865 332.453 365.306 327.918 368.013 326.149C377.142 319.959 387.075 322.861 389.186 333.371C393.468 331.653 394.727 327.536 394.918 321.745C399.355 324.612 403.264 336.291 405.256 338.426C407.076 332.691 408.269 328.8 406.723 322.266Z" fill="#edf1f5" fill-rule="nonzero" opacity="1" stroke="none"/> </g> </g> </g> </svg>