<?xml version="1.0" encoding="UTF-8"?>
<!-- Creator: CorelDRAW X7 -->
<svg xmlns="http://www.w3.org/2000/svg" xmlns:xlink="http://www.w3.org/1999/xlink" xml:space="preserve" width="3513px" height="871px" version="1.1" style="shape-rendering:geometricPrecision; text-rendering:geometricPrecision; image-rendering:optimizeQuality; fill-rule:evenodd; clip-rule:evenodd" viewBox="0 0 3470 860">
 <defs>
  <style type="text/css">
   <![CDATA[
    .fil0 {fill:#363435;fill-rule:nonzero}
    .fil5 {fill:url(#id0);fill-rule:nonzero}
    .fil8 {fill:url(#id1);fill-rule:nonzero}
    .fil1 {fill:url(#id2);fill-rule:nonzero}
    .fil9 {fill:url(#id3);fill-rule:nonzero}
    .fil6 {fill:url(#id4);fill-rule:nonzero}
    .fil7 {fill:url(#id5);fill-rule:nonzero}
    .fil2 {fill:url(#id6);fill-rule:nonzero}
    .fil3 {fill:url(#id7);fill-rule:nonzero}
    .fil4 {fill:url(#id8);fill-rule:nonzero}
   ]]>
  </style>
  <linearGradient id="id0" gradientUnits="userSpaceOnUse" x1="2406.93" y1="644.501" x2="2406.93" y2="848.383">
   <stop offset="0" style="stop-opacity:1; stop-color:#744C32"/>
   <stop offset="0.0588235" style="stop-opacity:1; stop-color:#9D704C"/>
   <stop offset="0.160784" style="stop-opacity:1; stop-color:#D39D6D"/>
   <stop offset="0.329412" style="stop-opacity:1; stop-color:#FAF3E9"/>
   <stop offset="0.760784" style="stop-opacity:1; stop-color:#D39D6D"/>
   <stop offset="1" style="stop-opacity:1; stop-color:#744C32"/>
  </linearGradient>
  <linearGradient id="id1" gradientUnits="userSpaceOnUse" xlink:href="#id0" x1="648.817" y1="644.551" x2="648.817" y2="848.435">
  </linearGradient>
  <linearGradient id="id2" gradientUnits="userSpaceOnUse" x1="1741.24" y1="0.0011664" x2="1741.24" y2="454.091">
   <stop offset="0" style="stop-opacity:1; stop-color:#744C32"/>
   <stop offset="0.0588235" style="stop-opacity:1; stop-color:#9D704C"/>
   <stop offset="0.160784" style="stop-opacity:1; stop-color:#D39D6D"/>
   <stop offset="0.470588" style="stop-opacity:1; stop-color:#FAF3E9"/>
   <stop offset="0.690196" style="stop-opacity:1; stop-color:#D39D6D"/>
   <stop offset="1" style="stop-opacity:1; stop-color:#744C32"/>
  </linearGradient>
  <linearGradient id="id3" gradientUnits="userSpaceOnUse" xlink:href="#id0" x1="1103.48" y1="644.551" x2="1103.48" y2="848.435">
  </linearGradient>
  <linearGradient id="id4" gradientUnits="userSpaceOnUse" xlink:href="#id0" x1="2820.13" y1="644.501" x2="2820.13" y2="848.383">
  </linearGradient>
  <linearGradient id="id5" gradientUnits="userSpaceOnUse" xlink:href="#id0" x1="3258.32" y1="644.501" x2="3258.32" y2="848.383">
  </linearGradient>
  <linearGradient id="id6" gradientUnits="userSpaceOnUse" xlink:href="#id0" x1="199.602" y1="644.501" x2="199.602" y2="848.383">
  </linearGradient>
  <linearGradient id="id7" gradientUnits="userSpaceOnUse" xlink:href="#id0" x1="1553.32" y1="644.5" x2="1553.32" y2="848.272">
  </linearGradient>
  <linearGradient id="id8" gradientUnits="userSpaceOnUse" xlink:href="#id0" x1="1975.86" y1="644.501" x2="1975.86" y2="848.383">
  </linearGradient>
 </defs>
 <g id="Camada_x0020_1">
  <metadata id="CorelCorpID_0Corel-Layer"/>
  <g id="_2672986683728">
   <g>
    <path class="fil0" d="M2274 143l-153 0 0 264 -216 0 0 -264 -240 0 75 -80 606 0 -72 80zm-494 264l-430 0c-24,0 -46,-4 -67,-14 -21,-9 -40,-22 -55,-38 -16,-15 -29,-34 -38,-55 -9,-22 -13,-44 -13,-68 0,-24 4,-46 13,-67 9,-21 22,-38 38,-53 15,-16 34,-27 55,-36 21,-9 43,-13 67,-13l313 0 -73 80 -116 0c-27,0 -50,9 -68,26 -18,17 -27,39 -27,66 0,27 9,49 27,68 18,19 41,28 68,28l377 0 -71 76zm560 -395l-1174 0c-65,0 -117,52 -117,116l0 221c0,64 52,117 117,117l1174 0c64,0 117,-53 117,-117l0 -221c0,-64 -53,-116 -117,-116z"/>
    <path class="fil1" d="M2262 131l-152 0 0 265 -217 0 0 -265 -239 0 74 -80 607 0 -73 80zm-1108 323l1174 0c65,0 117,-52 117,-117l0 -220c0,-65 -52,-117 -117,-117l-1174 0c-64,0 -117,52 -117,117l0 220c0,65 53,117 117,117zm615 -58l-430 0c-24,0 -47,-5 -68,-14 -21,-10 -39,-22 -55,-38 -16,-16 -28,-34 -37,-56 -9,-21 -14,-44 -14,-68 0,-24 5,-46 14,-67 9,-20 21,-38 37,-53 16,-15 34,-27 55,-36 21,-8 44,-13 68,-13l312 0 -73 80 -116 0c-27,0 -49,9 -68,26 -18,18 -27,40 -27,66 0,27 9,50 27,68 19,19 41,29 68,29l377 0 -70 76z"/>
   </g>
   <g>
    <path class="fil0" d="M367 704l-180 0c-15,0 -29,5 -40,15 -10,10 -16,23 -16,39 0,16 6,29 16,40 11,12 25,17 40,17l224 0 -42 45 -254 0c-15,0 -28,-3 -41,-8 -12,-6 -23,-13 -32,-23 -10,-9 -17,-20 -22,-33 -6,-12 -8,-26 -8,-40 0,-14 2,-27 8,-39 5,-13 12,-23 22,-32 9,-9 20,-16 32,-21 13,-5 26,-8 41,-8l295 0 -43 48z"/>
    <path class="fil0" d="M627 815l72 0c16,0 29,-5 41,-16 11,-11 17,-25 17,-41 0,-8 -2,-16 -5,-22 -3,-7 -7,-13 -12,-17 -5,-5 -12,-9 -19,-12 -7,-2 -14,-4 -22,-4l-72 0c-8,0 -16,2 -23,5 -7,2 -13,6 -18,11 -6,5 -10,11 -13,18 -3,7 -5,14 -5,22 0,16 6,30 18,40 11,11 25,16 41,16zm148 45l-227 0c-14,0 -28,-3 -40,-8 -13,-5 -24,-12 -33,-21 -10,-10 -17,-21 -23,-34 -5,-13 -8,-27 -8,-43 0,-14 3,-27 8,-39 6,-12 13,-22 23,-31 9,-9 20,-16 33,-21 12,-4 26,-7 40,-7l228 0c14,0 27,3 39,7 13,5 23,12 32,21 9,9 17,19 22,31 5,12 8,25 8,39 0,14 -3,28 -8,41 -5,12 -13,24 -22,33 -9,10 -20,18 -32,23 -13,6 -26,9 -40,9z"/>
    <path class="fil0" d="M1180 703l-145 0 0 112 145 0c6,0 10,-1 12,-5 3,-4 5,-8 5,-12 0,-4 -1,-8 -4,-12 -3,-4 -7,-5 -13,-5l-141 0 36 -40 105 0c6,0 10,-2 13,-6 3,-4 4,-8 4,-13 0,-5 -1,-9 -4,-13 -2,-4 -7,-6 -13,-6zm106 51l0 0c11,4 20,10 26,18 6,8 8,17 8,27 0,7 -2,15 -5,22 -3,7 -8,14 -14,20 -7,6 -14,10 -23,14 -9,3 -20,5 -31,5l-337 0 0 -204 335 0c9,0 17,2 24,5 7,3 14,7 19,12 6,5 10,11 13,17 3,7 5,13 5,20 0,9 -2,18 -5,25 -4,8 -9,14 -15,19z"/>
    <path class="fil0" d="M1646 860l-141 -119 92 0c8,0 14,-2 18,-6 4,-4 6,-8 6,-13 0,-5 -2,-9 -6,-13 -4,-4 -10,-6 -18,-6l-117 0 0 157 -126 0 0 -204 344 0c9,0 17,2 25,5 8,3 15,7 20,13 6,6 11,12 14,20 4,8 6,16 6,25 0,9 -2,17 -5,25 -4,8 -8,14 -14,19 -6,6 -13,10 -21,13 -8,3 -16,5 -25,5l-21 0 99 79 -130 0z"/>
    <path class="fil0" d="M1969 741l163 0 -35 40 -168 0 40 -40zm183 -38l-178 0c-16,0 -29,5 -41,16 -11,10 -17,23 -17,39 0,8 2,15 5,22 3,7 7,13 12,19 5,5 11,9 18,12 7,3 15,4 23,4l219 0 -41 45 -267 0c-14,0 -28,-3 -40,-8 -13,-6 -24,-13 -33,-22 -9,-9 -17,-20 -22,-33 -6,-12 -8,-25 -8,-40 0,-14 2,-27 8,-39 5,-13 13,-23 22,-33 9,-9 20,-16 33,-21 12,-5 26,-8 40,-8l308 0 -41 47z"/>
    <polygon class="fil0" points="2577,703 2487,703 2487,860 2359,860 2359,703 2217,703 2261,656 2620,656 "/>
    <path class="fil0" d="M2813 741l163 0 -34 40 -168 0 39 -40zm183 -38l-178 0c-16,0 -29,5 -40,16 -12,10 -17,23 -17,39 0,8 1,15 4,22 3,7 7,13 13,19 5,5 11,9 18,12 7,3 14,4 22,4l219 0 -40 45 -268 0c-14,0 -28,-3 -40,-8 -13,-6 -23,-13 -33,-22 -9,-9 -16,-20 -22,-33 -5,-12 -8,-25 -8,-40 0,-14 3,-27 8,-39 6,-13 13,-23 22,-33 10,-9 20,-16 33,-21 12,-5 26,-8 40,-8l308 0 -41 47z"/>
    <path class="fil0" d="M3426 704l-180 0c-16,0 -29,5 -40,15 -11,10 -16,23 -16,39 0,16 5,29 16,40 11,12 24,17 40,17l224 0 -42 45 -255 0c-14,0 -27,-3 -40,-8 -12,-6 -23,-13 -32,-23 -10,-9 -17,-20 -23,-33 -5,-12 -8,-26 -8,-40 0,-14 3,-27 8,-39 6,-13 13,-23 23,-32 9,-9 20,-16 32,-21 13,-5 26,-8 40,-8l296 0 -43 48z"/>
    <path class="fil2" d="M103 848l255 0 41 -44 -223 0c-16,0 -29,-6 -40,-17 -11,-11 -16,-25 -16,-41 0,-15 5,-28 16,-39 11,-10 24,-15 40,-15l179 0 44 -48 -296 0c-14,0 -28,3 -40,8 -13,5 -23,12 -33,21 -9,9 -16,20 -22,32 -5,12 -8,25 -8,39l0 1c0,14 3,27 8,40 6,12 13,23 22,33 10,9 20,16 33,22 12,6 26,8 40,8z"/>
    <path class="fil3" d="M1342 848l127 0 0 -156 117 0c8,0 14,2 18,5 3,4 5,9 5,13 0,5 -2,9 -6,13 -4,4 -10,6 -17,6l-93 0 142 119 129 0 -98 -79 20 0c9,0 18,-1 26,-4 8,-3 14,-8 20,-13 6,-6 11,-12 14,-20 3,-7 5,-16 5,-25 0,-8 -2,-17 -5,-25 -4,-7 -8,-14 -14,-20 -6,-5 -13,-10 -21,-13 -7,-3 -16,-5 -25,-5l-344 0 0 204z"/>
    <path class="fil4" d="M1957 729l163 0 -34 40 -168 0 39 -40zm-84 119l268 0 41 -44 -220 0c-8,0 -15,-2 -22,-5 -7,-3 -13,-7 -18,-12 -5,-5 -10,-11 -13,-18 -3,-7 -4,-14 -4,-22 0,-16 5,-29 17,-40 11,-10 24,-15 40,-15l178 0 41 -48 -308 0c-14,0 -27,3 -40,8 -12,6 -23,13 -33,22 -9,9 -16,20 -22,32 -5,12 -8,26 -8,40 0,14 3,27 8,40 6,12 13,23 22,32 10,10 21,17 33,22 13,6 26,8 40,8z"/>
    <polygon class="fil5" points="2347,848 2475,848 2475,692 2566,692 2609,644 2249,644 2205,692 2347,692 "/>
    <path class="fil6" d="M2802 729l163 0 -35 40 -168 0 40 -40zm-85 119l268 0 41 -44 -219 0c-8,0 -16,-2 -23,-5 -7,-3 -13,-7 -18,-12 -5,-5 -9,-11 -12,-18 -3,-7 -5,-14 -5,-22 0,-16 6,-29 17,-40 11,-10 25,-15 41,-15l178 0 40 -48 -308 0c-14,0 -27,3 -40,8 -12,6 -23,13 -32,22 -10,9 -17,20 -22,32 -6,12 -9,26 -9,40 0,14 3,27 9,40 5,12 12,23 22,32 9,10 20,17 32,22 13,6 26,8 40,8z"/>
    <path class="fil7" d="M3162 848l254 0 42 -44 -223 0c-16,0 -30,-6 -40,-17 -11,-11 -17,-25 -17,-41 0,-15 6,-28 17,-39 10,-10 24,-15 40,-15l179 0 44 -48 -296 0c-15,0 -28,3 -40,8 -13,5 -24,12 -33,21 -9,9 -17,20 -22,32 -6,12 -8,25 -8,40 0,14 2,27 8,40 5,12 13,23 22,33 9,9 20,16 33,22 12,6 25,8 40,8z"/>
    <path class="fil8" d="M615 804l73 0c15,0 29,-6 40,-17 11,-11 17,-24 17,-41 0,-8 -1,-15 -4,-22 -3,-6 -7,-12 -13,-17 -5,-5 -11,-8 -18,-11 -7,-3 -15,-4 -23,-4l-72 0c-8,0 -16,1 -22,4 -7,3 -14,7 -19,12 -5,5 -10,11 -13,18 -3,6 -4,14 -4,22 0,16 5,29 17,40 12,10 25,16 41,16zm149 44l-228 0c-14,0 -27,-2 -40,-7 -13,-5 -24,-13 -33,-22 -10,-9 -17,-20 -22,-33 -6,-13 -8,-27 -8,-43 0,-14 2,-27 8,-39 5,-12 13,-23 22,-32 10,-8 21,-15 33,-20 13,-5 26,-7 40,-7l229 0c14,0 27,2 39,7 12,5 23,12 32,20 9,9 16,19 21,31 5,12 8,25 8,40 0,14 -3,27 -8,40 -5,13 -12,24 -21,34 -10,9 -20,17 -33,23 -12,6 -25,8 -39,8z"/>
    <path class="fil9" d="M1169 692l-146 0 0 112 146 0c5,0 9,-2 12,-6 3,-3 4,-7 4,-11 0,-5 -1,-9 -4,-12 -2,-4 -7,-6 -13,-6l-140 0 36 -40 105 0c5,0 9,-2 12,-6 3,-4 5,-8 5,-13 0,-4 -2,-9 -4,-13 -3,-3 -7,-5 -13,-5zm106 50l0 1c11,3 19,9 25,17 6,8 9,17 8,27 0,8 -1,15 -5,22 -3,8 -8,14 -14,20 -6,6 -14,11 -23,14 -9,4 -19,5 -31,5l-337 0 0 -203 336 0c9,0 16,1 24,4 7,3 13,7 19,12 5,6 9,11 12,18 3,6 5,13 5,19 0,10 -2,18 -5,26 -3,8 -8,14 -14,18z"/>
   </g>
  </g>
 </g>
</svg>